<?xml version="1.0" standalone="no"?>
<!DOCTYPE svg PUBLIC "-//W3C//DTD SVG 20010904//EN"
 "http://www.w3.org/TR/2001/REC-SVG-20010904/DTD/svg10.dtd">
<svg version="1.0" xmlns="http://www.w3.org/2000/svg"
 width="1024.000000pt" height="1024.000000pt" viewBox="0 0 1024.000000 1024.000000"
 preserveAspectRatio="xMidYMid meet">
<metadata>
Created by potrace 1.14, written by Peter Selinger 2001-2017
</metadata>
<g transform="translate(0.000000,1024.000000) scale(0.100000,-0.100000)"
fill="#000000" stroke="none">
<path d="M4658 9676 c-15 -13 -24 -27 -20 -30 3 -4 -1 -4 -11 0 -9 3 -14 11
-11 16 4 6 1 8 -7 6 -8 -3 -13 -14 -11 -24 2 -11 -1 -15 -5 -9 -9 12 -28 13
-39 3 -11 -11 -24 -10 -24 3 0 5 4 8 9 4 5 -3 12 -1 16 5 4 6 10 8 14 6 4 -3
13 5 20 16 l13 21 -29 -21 c-22 -16 -33 -18 -47 -10 -12 7 -17 7 -13 0 4 -6
-8 -10 -31 -11 -20 0 -45 -1 -54 -1 -10 -1 -18 -6 -18 -11 0 -6 -4 -8 -9 -5
-5 3 -14 -1 -21 -9 -15 -18 -34 -20 -23 -2 10 16 14 41 5 32 -4 -4 -8 -11 -8
-16 -1 -5 -2 -12 -3 -15 0 -4 -8 0 -18 7 -15 13 -15 12 -4 -10 11 -19 11 -22
0 -16 -9 6 -11 3 -6 -8 4 -11 2 -14 -9 -10 -11 4 -12 9 -4 18 8 10 8 15 -1 21
-8 5 -9 3 -4 -6 6 -10 4 -12 -8 -7 -9 3 -22 0 -29 -7 -11 -11 -15 -11 -24 2
-9 12 -13 12 -19 2 -5 -9 -4 -11 3 -6 7 4 12 4 12 -1 0 -4 -11 -13 -25 -20
-14 -6 -23 -7 -19 -2 8 13 -10 11 -25 -3 -11 -11 -12 -10 -6 1 6 11 4 13 -8 8
-11 -4 -14 -2 -11 7 3 8 1 17 -5 21 -7 4 -8 -1 -4 -12 6 -16 5 -17 -13 -3 -18
14 -18 14 -5 -3 11 -14 12 -20 2 -30 -7 -7 -12 -7 -11 -2 4 21 0 25 -14 13 -8
-7 -12 -16 -10 -20 3 -4 -5 -5 -17 -3 -15 3 -19 0 -15 -11 4 -12 2 -12 -14 -4
-11 6 -20 13 -20 16 0 3 5 2 12 -2 6 -4 8 -3 5 3 -4 6 3 10 15 9 27 -1 47 29
31 45 -9 9 -10 6 -6 -12 l6 -24 -24 20 c-15 13 -19 14 -11 3 8 -10 9 -18 3
-22 -5 -4 -15 2 -21 11 -7 13 -10 14 -8 3 3 -21 -19 -58 -43 -71 -15 -8 -19
-8 -15 0 4 7 -1 11 -13 11 -12 0 -21 4 -21 9 0 7 -19 8 -52 2 -5 0 -8 -11 -9
-23 0 -17 -2 -19 -7 -8 -4 8 -16 15 -27 14 -11 0 -26 4 -33 10 -9 6 -12 6 -10
-4 2 -7 -3 -15 -11 -18 -10 -3 -11 0 -5 9 7 12 5 12 -9 0 -20 -16 -22 -38 -5
-43 7 -3 -4 -5 -25 -6 -22 -1 -35 3 -32 8 3 6 2 10 -4 10 -5 0 -11 -5 -13 -10
-2 -6 -13 -12 -24 -12 -16 -2 -20 -7 -16 -22 5 -18 4 -18 -10 -5 -9 7 -13 18
-10 23 3 5 0 6 -7 2 -6 -4 -9 -11 -6 -16 3 -5 1 -11 -5 -15 -6 -4 -8 -11 -5
-16 4 -5 2 -9 -4 -9 -5 0 -9 9 -8 19 0 11 5 17 9 15 4 -3 5 3 1 13 -6 15 -8
14 -18 -9 -9 -22 -13 -25 -30 -16 -20 11 -20 11 0 -12 l20 -23 -30 19 c-16 10
-26 13 -22 7 5 -8 3 -13 -3 -13 -6 0 -9 -4 -5 -9 3 -5 1 -12 -4 -16 -6 -3 -8
6 -5 21 3 16 1 23 -6 19 -5 -3 -10 -15 -10 -26 0 -10 -5 -19 -11 -19 -5 0 -8
4 -5 8 2 4 1 14 -5 22 -6 11 -9 12 -9 2 0 -7 -5 -10 -12 -6 -7 4 -8 3 -4 -4 6
-10 -11 -17 -35 -14 -4 1 -5 -9 -2 -21 3 -15 2 -18 -5 -9 -5 7 -24 15 -43 17
-21 3 -29 1 -20 -4 9 -6 10 -11 2 -15 -6 -4 -8 -12 -5 -18 4 -6 -1 -6 -14 1
-11 6 -23 16 -26 23 -3 7 -3 2 0 -11 5 -17 3 -21 -6 -16 -9 6 -11 4 -6 -4 5
-7 14 -10 22 -7 7 3 16 2 18 -3 3 -4 0 -8 -7 -9 -7 -1 -23 -3 -36 -5 -13 -2
-30 -12 -37 -22 -8 -10 -14 -14 -14 -9 0 6 5 15 12 22 18 18 -3 14 -24 -5 -17
-15 -20 -15 -45 8 -18 16 -22 17 -13 5 14 -18 13 -19 -2 -13 -12 4 -15 2 -11
-9 4 -10 9 -11 18 -4 8 7 12 6 12 -4 0 -8 -8 -13 -19 -11 -10 2 -22 -4 -27
-13 -9 -15 -10 -14 -8 5 0 12 5 19 11 16 5 -3 6 -1 2 5 -10 17 -29 15 -23 -2
3 -8 0 -22 -8 -32 -10 -15 -11 -22 -2 -34 10 -13 10 -13 -4 -2 -10 7 -15 21
-12 32 3 11 0 20 -6 20 -6 0 -8 -7 -4 -17 4 -10 2 -14 -5 -9 -7 4 -9 -2 -6
-19 2 -14 0 -25 -6 -25 -5 0 -9 3 -9 8 3 18 -2 32 -11 32 -6 0 -10 -7 -8 -16
2 -10 -3 -19 -9 -21 -7 -3 -13 0 -13 7 0 6 5 8 12 4 6 -4 8 -3 5 3 -9 14 -50
9 -55 -8 -3 -11 -2 -11 6 -1 7 11 11 10 16 -4 3 -9 4 -19 1 -22 -3 -3 -5 0 -5
7 0 7 -5 9 -10 6 -8 -5 -7 -12 2 -23 12 -15 11 -16 -4 -3 -15 11 -19 11 -24
-3 -3 -9 -10 -16 -16 -16 -5 0 -7 4 -4 9 3 5 -1 12 -10 15 -10 4 -13 2 -8 -6
5 -7 -1 -9 -20 -6 -14 3 -26 1 -26 -4 0 -5 -4 -7 -9 -3 -5 3 -12 1 -16 -5 -4
-6 -11 -7 -17 -4 -7 4 -8 2 -4 -4 3 -6 -3 -16 -14 -22 -11 -6 -20 -16 -20 -23
0 -9 2 -9 8 0 5 9 12 6 21 -10 12 -19 12 -20 0 -11 -8 6 -27 9 -42 7 -16 -2
-26 0 -23 5 3 5 -1 9 -9 9 -11 0 -12 -4 -4 -13 8 -10 5 -16 -10 -26 -14 -8
-17 -16 -10 -24 7 -8 6 -15 -2 -20 -8 -4 -9 -3 -5 5 4 7 -2 15 -16 20 -13 6
-21 10 -18 11 3 1 13 3 23 5 27 5 32 14 17 28 -9 8 -11 8 -6 0 3 -6 2 -14 -4
-18 -5 -3 -10 0 -10 7 0 8 -5 6 -11 -5 -6 -9 -15 -15 -20 -11 -5 3 -8 0 -7 -8
2 -7 -3 -12 -10 -10 -8 1 -11 -2 -8 -7 6 -8 -17 -23 -39 -25 -5 -1 -9 -9 -9
-19 1 -9 -2 -15 -6 -12 -5 3 -11 1 -15 -5 -3 -5 -1 -10 4 -10 6 0 11 -5 11
-11 0 -6 -15 0 -32 12 l-33 22 30 -34 c17 -18 21 -27 10 -18 -33 26 -49 34
-40 19 6 -10 4 -12 -9 -7 -11 5 -15 3 -10 -5 5 -8 2 -9 -11 -4 -15 5 -16 4 -5
-9 10 -12 9 -16 -5 -21 -13 -5 -14 -9 -3 -15 9 -6 9 -9 1 -9 -19 0 -25 18 -9
27 12 7 12 10 0 20 -8 8 -15 9 -19 3 -3 -6 -1 -10 5 -10 6 0 8 -5 5 -10 -4 -6
-11 -7 -17 -4 -6 4 -6 -1 1 -14 7 -14 8 -23 1 -27 -6 -4 -8 -11 -4 -16 3 -6
-3 -5 -14 2 -12 7 -19 16 -16 20 2 4 -4 6 -13 5 -10 -1 -22 -12 -28 -24 -15
-33 -36 -37 -31 -7 3 15 1 23 -5 20 -5 -4 -7 -10 -4 -15 3 -5 -2 -15 -10 -24
-8 -8 -15 -19 -14 -23 3 -20 -2 -34 -11 -28 -6 4 -8 10 -6 14 3 4 -1 8 -8 8
-13 0 -14 -5 -17 -52 -2 -28 -9 -27 -13 1 -2 10 -9 20 -17 22 -8 2 -10 0 -4
-5 16 -13 16 -33 0 -33 -10 0 -12 -6 -8 -17 6 -16 4 -16 -9 -5 -14 12 -16 10
-11 -10 5 -21 4 -22 -8 -5 -13 16 -16 16 -34 3 -20 -14 -20 -14 0 -37 11 -13
13 -19 5 -13 -28 20 -49 24 -43 9 3 -8 9 -12 15 -9 5 3 4 -3 -3 -14 -12 -18
-14 -19 -24 -5 -9 12 -14 13 -19 4 -4 -6 -12 -9 -17 -6 -5 4 -9 1 -9 -5 0 -6
-5 -8 -12 -4 -6 4 -8 3 -5 -3 8 -13 -17 -36 -27 -26 -4 4 -4 -1 0 -12 7 -17 6
-18 -8 -7 -13 10 -18 10 -24 1 -5 -8 -3 -9 6 -4 8 5 11 3 8 -6 -3 -8 -10 -13
-15 -12 -5 1 -10 -7 -10 -18 -1 -11 1 -17 5 -15 4 3 8 -4 8 -14 0 -15 -3 -17
-15 -7 -12 10 -14 9 -9 -4 4 -11 1 -16 -9 -15 -10 1 -17 -8 -18 -21 -1 -13 -4
-26 -8 -29 -14 -15 1 48 16 64 10 10 17 21 17 24 0 9 -28 3 -37 -7 -4 -4 -2
-5 6 0 9 5 12 3 9 -6 -3 -8 -10 -13 -16 -12 -6 2 -9 -6 -7 -17 2 -11 -1 -22
-6 -25 -5 -4 -7 -10 -4 -15 3 -5 -4 -14 -15 -20 -11 -6 -18 -15 -15 -21 4 -5
1 -9 -5 -9 -7 0 -9 7 -6 17 4 10 4 14 0 10 -4 -4 -17 1 -28 10 -12 10 -16 11
-9 4 10 -11 9 -17 -5 -28 -15 -11 -15 -12 -1 -7 19 6 35 -11 19 -21 -6 -4 -7
-11 -4 -17 4 -7 2 -8 -5 -4 -6 4 -9 12 -6 17 3 5 -1 6 -9 3 -9 -3 -16 -1 -16
5 0 6 -4 11 -8 11 -5 0 -9 -7 -9 -15 0 -8 4 -12 8 -10 3 3 12 -2 19 -10 11
-13 10 -14 -5 -9 -12 5 -16 4 -11 -4 4 -7 -10 -22 -35 -37 -33 -21 -40 -31
-37 -50 4 -18 1 -22 -10 -17 -9 3 -13 1 -9 -5 3 -5 0 -10 -8 -10 -13 0 -12 4
2 19 9 10 13 21 10 25 -4 3 -7 1 -7 -6 0 -7 -5 -9 -10 -6 -6 4 -9 1 -8 -7 2
-7 -4 -12 -12 -10 -10 1 -7 -5 7 -17 19 -16 20 -20 7 -25 -9 -3 -14 -13 -10
-21 3 -8 2 -17 -3 -19 -11 -7 -10 26 1 40 5 8 3 14 -6 17 -11 4 -13 1 -9 -10
4 -10 2 -14 -4 -10 -7 5 -9 0 -6 -13 4 -16 2 -19 -11 -14 -9 3 -13 11 -9 17 3
6 1 7 -6 3 -6 -4 -9 -11 -6 -16 3 -4 0 -10 -7 -12 -7 -3 -5 -7 6 -11 11 -5 15
-3 10 5 -5 7 -3 8 5 4 9 -6 8 -13 -5 -27 -9 -11 -22 -19 -28 -18 -24 3 -36 -1
-36 -12 0 -8 6 -7 18 2 9 7 14 9 10 5 -4 -5 -2 -16 5 -25 10 -14 10 -14 -5 -3
-14 12 -19 11 -34 -6 -9 -11 -23 -18 -29 -15 -7 2 -16 0 -20 -6 -4 -7 0 -8 11
-4 15 6 15 4 -1 -23 l-17 -29 22 28 c22 28 40 35 40 16 0 -5 -4 -7 -10 -4 -5
3 -10 1 -10 -5 0 -7 -10 -21 -22 -32 -21 -18 -21 -19 -3 -13 14 4 17 3 9 -5
-11 -11 -46 -21 -81 -23 -12 -1 -19 -5 -17 -9 3 -4 -1 -8 -8 -8 -10 0 -9 -3 2
-10 9 -6 19 -5 29 3 16 14 73 18 65 5 -3 -4 -10 -6 -15 -3 -5 4 -15 3 -21 -2
-7 -4 -17 -8 -23 -8 -5 0 -9 -8 -9 -18 2 -15 -1 -15 -26 3 -26 18 -30 19 -64
5 -33 -14 -40 -13 -37 8 0 4 -3 7 -8 7 -5 0 -8 -12 -9 -26 0 -18 3 -22 9 -13
7 11 9 11 9 1 0 -10 5 -10 22 2 26 19 38 20 38 5 0 -5 -5 -7 -12 -3 -8 5 -9 2
-4 -11 5 -14 4 -16 -7 -7 -8 7 -17 8 -21 4 -4 -4 -16 -8 -27 -8 -37 -3 -40 -4
-33 -16 4 -7 3 -8 -4 -4 -16 10 -15 26 1 26 8 0 14 6 14 13 0 8 -6 14 -13 14
-7 0 -11 -4 -8 -9 3 -4 1 -8 -5 -8 -5 0 -11 4 -13 9 -1 5 -10 2 -18 -7 -13
-14 -12 -15 2 -10 12 5 15 2 11 -13 -5 -20 -6 -19 -20 1 -8 11 -11 25 -7 32 5
7 3 8 -5 4 -7 -5 -10 -14 -8 -20 3 -7 1 -19 -5 -27 -8 -11 -9 -10 -4 4 3 9 1
17 -5 17 -6 0 -7 5 -3 11 4 8 0 8 -15 0 -12 -7 -27 -9 -34 -5 -9 6 -8 3 1 -8
10 -13 10 -18 1 -24 -8 -4 -9 -3 -5 4 4 7 3 12 -3 12 -5 0 -13 -5 -16 -10 -4
-6 -12 -7 -18 -3 -22 14 -39 12 -33 -3 3 -9 1 -12 -4 -9 -6 3 -10 0 -10 -7 -1
-7 -6 -4 -13 7 -15 24 -34 30 -53 14 -11 -9 -15 -8 -20 5 -3 9 -14 16 -23 16
-13 0 -13 -2 -2 -9 9 -6 10 -11 2 -15 -6 -4 -9 -12 -5 -17 3 -6 12 -5 22 3 10
7 14 8 10 4 -4 -5 -3 -15 3 -22 7 -8 6 -14 -2 -20 -7 -4 -9 -3 -5 4 3 6 2 13
-3 16 -5 4 -12 2 -16 -4 -4 -6 -11 -8 -16 -4 -5 3 -7 10 -4 15 4 5 -1 9 -10 9
-9 0 -14 -4 -10 -9 3 -5 1 -12 -5 -16 -6 -4 -8 -10 -6 -14 3 -4 -1 -8 -9 -8
-12 0 -12 3 -3 15 7 8 13 21 14 31 2 14 1 14 -10 -1 -13 -18 -38 -25 -33 -10
1 4 -3 7 -8 7 -6 0 -9 -11 -8 -25 l2 -25 -15 25 -14 25 2 -25 c3 -21 -1 -25
-23 -25 -21 -1 -25 3 -23 23 2 19 0 21 -12 11 -8 -6 -12 -14 -9 -17 2 -3 -3
-11 -13 -18 -13 -9 -20 -10 -31 -1 -12 10 -14 8 -8 -8 7 -18 6 -19 -6 -3 -8
10 -18 14 -22 10 -5 -4 -5 -2 -2 5 7 12 24 12 43 0 11 -6 24 0 24 12 0 3 -15
7 -34 7 -30 1 -37 -3 -48 -30 -7 -17 -12 -34 -11 -38 2 -5 -27 -3 -34 2 -2 2
-7 4 -13 5 -5 1 -11 3 -12 5 -12 9 -35 5 -35 -6 0 -16 14 -19 19 -5 2 5 11 4
21 -4 17 -12 17 -13 -5 -13 -13 0 -36 -3 -53 -6 -21 -4 -26 -3 -15 3 8 5 18 7
24 4 5 -3 6 -1 2 5 -10 17 -49 -5 -42 -23 2 -7 -1 -16 -9 -19 -9 -3 -12 0 -9
8 3 8 1 16 -4 20 -10 6 -9 -30 1 -40 4 -4 7 -14 7 -23 0 -11 -3 -10 -15 5 -14
18 -15 17 -4 -8 8 -17 17 -25 28 -22 9 3 5 -2 -9 -11 -19 -12 -21 -15 -6 -13
11 2 20 -4 21 -15 2 -9 -1 -15 -6 -11 -5 3 -6 10 -3 16 4 7 2 8 -4 4 -6 -4 -8
-14 -5 -23 4 -10 2 -14 -4 -10 -5 3 -10 0 -10 -8 0 -8 4 -12 9 -9 4 3 8 0 8
-6 0 -6 5 -8 11 -5 6 4 5 -2 -3 -14 -7 -12 -18 -19 -25 -17 -7 3 -10 -1 -6 -9
3 -8 10 -12 16 -8 6 4 8 -1 5 -13 -3 -10 -7 -26 -9 -34 -2 -8 -8 -18 -14 -22
-6 -5 -5 -8 3 -8 8 0 10 -5 6 -12 -4 -8 -3 -10 2 -5 5 5 9 18 9 30 0 11 7 22
15 24 10 3 11 2 4 -4 -6 -4 -10 -16 -8 -26 1 -9 -4 -24 -12 -31 -12 -13 -11
-16 7 -21 12 -4 17 -10 12 -14 -6 -3 -10 -20 -9 -38 1 -21 -2 -28 -10 -22 -7
5 -11 3 -11 -6 0 -8 7 -15 16 -15 13 -1 12 -3 -3 -15 -11 -8 -17 -18 -13 -21
4 -4 13 -2 20 4 10 9 14 8 14 -3 0 -8 -4 -12 -9 -9 -14 9 -9 -34 7 -49 13 -13
13 -16 0 -21 -8 -3 -14 -2 -14 2 3 19 -3 29 -17 29 -14 0 -14 -2 2 -14 10 -7
14 -13 9 -13 -5 0 -4 -5 2 -11 6 -6 9 -19 7 -28 -4 -10 -1 -9 8 4 7 11 20 21
28 23 8 2 12 0 8 -4 -4 -4 0 -13 10 -21 15 -13 14 -13 -6 -3 -29 14 -37 8 -23
-17 6 -10 11 -13 11 -5 0 14 31 12 42 -3 4 -5 6 0 5 13 0 12 -6 22 -11 22 -5
0 -7 3 -4 6 9 8 59 -27 52 -37 -5 -8 10 -13 29 -10 5 1 6 -3 2 -9 -6 -10 6
-14 35 -11 13 2 13 1 0 -8 -10 -7 -21 -6 -36 4 -16 10 -21 10 -21 1 0 -12 11
-16 50 -17 11 0 15 -5 10 -12 -4 -7 0 -6 10 2 12 9 17 10 17 2 0 -7 4 -10 9
-6 5 3 12 1 16 -4 3 -5 14 -8 25 -6 12 2 18 0 15 -6 -4 -5 -10 -7 -15 -4 -5 3
-14 -3 -19 -14 -14 -25 -14 -42 0 -18 8 13 15 15 28 7 10 -5 21 -6 25 -2 10 9
-5 -30 -18 -48 -9 -13 -9 -13 5 -3 9 7 19 10 23 6 4 -4 4 1 0 12 -4 11 -3 16
1 12 5 -4 8 -24 8 -45 -1 -30 0 -33 6 -12 6 21 8 22 14 8 3 -10 12 -15 21 -12
8 3 17 1 21 -5 4 -7 -1 -8 -12 -4 -16 6 -16 5 -4 -10 7 -9 18 -14 24 -10 6 3
7 1 3 -5 -4 -6 0 -25 9 -41 8 -17 11 -32 6 -35 -10 -7 -9 -25 2 -43 4 -6 4
-19 0 -30 -6 -16 -5 -16 10 -5 9 8 20 11 26 8 10 -7 9 -31 -2 -42 -3 -4 -4 3
-2 15 3 15 0 21 -8 18 -7 -3 -11 -9 -10 -15 2 -6 -7 -16 -20 -22 -20 -10 -20
-10 -4 3 15 13 16 16 2 27 -9 7 -18 10 -22 6 -3 -3 -1 -6 5 -6 7 0 12 -4 12
-10 0 -5 -8 -7 -17 -4 -14 4 -15 3 -5 -4 8 -5 14 -13 15 -18 1 -5 12 -8 24 -7
13 1 23 -2 23 -7 0 -6 -6 -9 -12 -7 -7 1 -12 -4 -10 -11 1 -8 -7 -7 -25 5 -18
12 -24 13 -19 4 6 -9 1 -20 -15 -33 -19 -15 -20 -17 -3 -9 28 13 55 -3 35 -21
-10 -10 -12 -10 -7 0 4 6 2 12 -3 12 -16 0 -13 -20 4 -26 8 -4 15 -10 15 -15
0 -5 -12 -2 -27 8 -21 13 -25 14 -18 3 6 -8 10 -22 9 -30 -1 -8 -2 -23 -3 -33
-1 -12 -6 -16 -13 -11 -10 6 -10 4 -1 -7 15 -15 17 -33 4 -24 -6 3 -8 -4 -6
-15 2 -11 -1 -20 -6 -20 -6 0 -7 -5 -4 -11 4 -5 -1 -20 -12 -32 -10 -12 -11
-17 -3 -11 12 9 20 7 35 -8 19 -18 19 -19 1 -12 -15 6 -17 4 -11 -6 5 -9 4
-11 -4 -6 -6 4 -8 13 -4 19 4 7 -2 5 -13 -3 -29 -22 -30 -24 -10 -16 14 5 17
2 12 -10 -4 -12 -1 -14 14 -9 12 4 20 2 20 -5 0 -6 -4 -8 -10 -5 -5 3 -10 2
-10 -4 0 -6 -7 -8 -15 -5 -11 5 -13 2 -9 -10 3 -9 11 -13 18 -9 6 3 5 0 -2 -8
-11 -12 -14 -12 -22 1 -5 8 -10 11 -10 7 0 -5 9 -21 21 -35 17 -22 18 -28 6
-37 -8 -5 -14 -13 -15 -18 -2 -23 -9 -29 -15 -13 -5 12 -3 15 6 10 9 -5 9 -4
0 6 -20 21 -25 6 -10 -29 7 -17 16 -28 20 -24 4 3 7 1 7 -5 0 -16 -27 -15 -33
1 -3 6 -4 2 -4 -11 1 -14 6 -21 14 -18 7 3 15 0 19 -6 4 -7 3 -8 -4 -4 -7 4
-12 3 -12 -3 0 -5 5 -11 12 -13 7 -3 5 -7 -6 -11 -9 -4 -15 -3 -11 2 3 5 1 12
-4 16 -6 3 -8 -6 -5 -21 3 -14 1 -23 -4 -21 -4 3 -8 -3 -8 -13 0 -10 3 -17 6
-16 3 2 14 -6 25 -17 l20 -20 -23 13 c-13 6 -26 9 -30 6 -3 -3 0 -6 7 -6 7 0
9 -5 5 -12 -5 -7 -7 -25 -6 -41 2 -21 -1 -26 -10 -21 -7 4 -10 4 -6 -1 4 -4 2
-15 -4 -24 -7 -9 -1 -6 12 6 19 17 29 19 40 12 12 -9 12 -10 -4 -5 -14 5 -17
2 -12 -9 3 -9 2 -13 -4 -10 -6 3 -10 -1 -10 -9 0 -15 -12 -21 -33 -17 -5 1 -6
-3 -2 -8 3 -6 12 -8 19 -5 7 3 19 -2 26 -11 7 -8 8 -15 3 -15 -5 0 -10 -7 -10
-15 0 -8 5 -15 11 -15 6 0 5 -4 -2 -9 -15 -9 -18 -38 -6 -66 7 -17 6 -18 -8
-5 -15 14 -18 46 -5 66 3 6 -4 10 -16 11 -12 0 -16 -1 -9 -4 6 -3 12 -9 12
-14 0 -6 -4 -7 -10 -4 -14 9 -13 -8 2 -23 7 -7 9 -12 5 -12 -4 0 -3 -9 3 -19
6 -12 6 -22 1 -26 -5 -3 -12 3 -14 12 -4 17 -5 17 -6 1 0 -10 -5 -18 -9 -18
-5 0 -9 -7 -9 -16 0 -15 1 -15 12 0 7 8 15 13 18 9 4 -3 1 -13 -6 -21 -9 -13
-9 -14 1 -8 6 4 12 3 12 -3 0 -5 8 -12 18 -14 11 -3 8 -5 -9 -6 -14 0 -30 4
-36 10 -8 8 -13 7 -18 -2 -5 -7 -4 -10 2 -6 6 4 18 -5 28 -19 13 -20 14 -28 4
-40 -6 -8 -8 -14 -3 -14 5 0 3 -4 -5 -9 -8 -5 -16 -17 -17 -25 -1 -9 2 -14 6
-11 8 5 56 -74 51 -82 -5 -9 -15 -1 -17 13 -4 23 -7 24 -29 7 -19 -15 -19 -15
5 -8 23 7 24 7 10 -10 -8 -11 -10 -16 -4 -12 7 4 14 -2 18 -16 9 -33 7 -39 -6
-31 -8 5 -7 0 2 -11 8 -10 10 -16 4 -12 -6 4 -20 -3 -30 -16 l-19 -22 23 19
c19 17 33 10 15 -8 -11 -11 -14 -46 -4 -46 6 0 8 9 6 20 -2 12 0 18 6 15 5 -4
8 -3 7 2 -3 8 5 13 23 13 6 0 1 -9 -12 -20 -13 -10 -19 -19 -14 -20 6 0 16 5
23 12 9 9 12 9 12 1 0 -7 -9 -14 -19 -18 -19 -6 -20 -15 -6 -48 4 -10 4 -22
-2 -28 -5 -5 -9 -1 -11 11 -4 43 -6 48 -18 46 -8 -1 -16 -5 -19 -9 -3 -4 -2
-5 2 -2 7 5 32 -25 33 -39 0 -6 -5 -5 -12 2 -7 7 -17 12 -23 12 -5 0 -3 -5 5
-10 8 -5 10 -10 4 -10 -6 0 -11 -7 -11 -16 0 -15 2 -15 13 0 7 10 15 13 18 7
4 -5 2 -12 -4 -16 -6 -4 -7 -11 -4 -17 5 -7 1 -9 -9 -5 -9 3 -19 1 -23 -6 -4
-7 -4 -9 1 -5 4 4 16 3 27 -3 16 -9 17 -13 6 -27 -11 -13 -11 -14 0 -8 9 5 13
3 11 -5 -3 -28 1 -39 17 -39 8 0 12 -5 9 -10 -4 -7 -12 -7 -25 0 -14 7 -18 6
-16 -5 1 -8 6 -18 11 -22 4 -4 5 -3 2 3 -11 18 41 14 55 -5 11 -14 11 -14 -3
-4 -12 10 -18 9 -32 -7 -15 -18 -15 -19 4 -25 10 -4 17 -10 14 -15 -3 -5 3
-14 12 -20 13 -8 14 -10 2 -7 -18 6 -44 -29 -29 -38 6 -3 10 -11 10 -16 0 -6
-5 -7 -11 -3 -7 4 -7 -1 1 -15 9 -18 9 -26 -2 -38 -12 -15 -11 -15 12 -3 14 7
22 9 18 5 -4 -5 -2 -15 5 -24 10 -14 10 -14 -5 -3 -10 8 -19 9 -22 3 -4 -5 3
-13 15 -16 15 -5 18 -10 9 -15 -15 -10 -15 -21 2 -32 10 -7 8 -8 -6 -6 -11 2
-20 -4 -21 -14 -2 -10 0 -17 3 -17 18 3 32 -2 32 -11 0 -5 -7 -7 -15 -4 -11 5
-13 2 -8 -12 5 -13 3 -15 -8 -10 -8 4 -3 -2 11 -14 27 -24 34 -46 18 -57 -7
-3 -8 -1 -4 5 5 8 1 10 -9 5 -13 -4 -14 -8 -4 -14 7 -4 17 -5 23 -2 5 4 7 -1
3 -11 -4 -10 -3 -15 3 -11 6 3 10 0 10 -8 0 -10 -7 -13 -19 -10 -10 3 -21 1
-24 -4 -4 -6 7 -9 24 -8 22 1 28 -2 25 -12 -3 -8 -2 -11 3 -8 5 3 13 0 17 -6
4 -8 3 -9 -4 -5 -7 4 -12 3 -12 -3 0 -6 -7 -8 -15 -5 -8 4 -12 11 -8 17 4 6 1
7 -7 2 -10 -6 -10 -11 3 -20 10 -7 17 -17 17 -23 0 -5 7 -12 15 -16 8 -3 14
-9 13 -13 -1 -4 3 -18 10 -30 9 -17 9 -22 -4 -27 -8 -3 -13 -2 -9 3 8 14 -6
42 -17 35 -6 -4 -5 -10 3 -14 10 -7 10 -11 0 -24 -11 -13 -10 -15 9 -11 19 4
20 2 8 -12 -11 -14 -11 -16 1 -9 10 7 12 3 6 -14 -5 -17 -4 -21 5 -15 8 5 11
4 6 -3 -3 -6 2 -13 11 -16 10 -3 6 -4 -9 -2 -16 2 -28 -1 -28 -5 0 -8 21 -13
46 -10 6 1 11 -5 11 -13 0 -11 -5 -12 -18 -5 -12 6 -20 5 -24 -1 -10 -16 37
-30 54 -16 12 9 13 8 6 -4 -13 -20 -13 -33 0 -42 6 -5 6 -8 -2 -8 -6 0 -15 5
-18 10 -4 6 -11 8 -16 5 -5 -4 -9 -1 -9 5 0 7 7 9 18 5 14 -5 15 -4 5 6 -19
19 -39 -3 -24 -28 8 -14 11 -14 11 -3 0 8 7 3 16 -13 8 -15 12 -32 9 -37 -9
-14 8 -12 25 2 12 11 12 10 2 -4 -11 -14 -9 -20 10 -38 15 -14 17 -19 6 -15
-12 5 -16 2 -13 -12 2 -10 4 -22 4 -26 1 -5 5 -6 9 -3 5 3 9 -1 9 -9 0 -11 -4
-12 -14 -4 -7 6 -13 8 -14 3 0 -5 -2 -17 -4 -27 -2 -9 1 -15 6 -11 5 3 6 10 3
16 -4 6 -3 8 3 5 6 -4 9 -18 7 -32 -2 -21 1 -25 17 -20 10 4 19 2 19 -3 0 -15
-40 -9 -51 8 -9 12 -10 12 -5 -3 3 -10 6 -21 6 -23 0 -2 10 -4 23 -4 23 0 47
-17 47 -33 0 -4 -10 -5 -22 -2 -16 4 -19 3 -9 -3 11 -8 11 -11 0 -16 -8 -3 -5
-4 6 -1 11 2 27 0 35 -6 12 -8 12 -9 -5 -7 -15 2 -20 -3 -20 -22 -1 -14 5 -32
13 -42 9 -11 10 -18 3 -23 -6 -3 -11 -1 -11 6 0 7 -2 10 -5 7 -3 -3 -3 -12 1
-21 5 -13 10 -12 30 11 26 28 26 26 -5 -37 -8 -15 -6 -18 12 -17 12 0 25 6 29
11 5 6 8 5 9 -2 3 -23 4 -28 12 -40 5 -7 6 -13 2 -13 -3 0 -1 -9 5 -19 7 -14
7 -22 -2 -27 -7 -5 -8 -3 -3 6 6 9 4 11 -4 5 -9 -5 -10 -10 -2 -18 15 -15 14
-30 -1 -21 -7 4 -8 3 -4 -5 6 -9 11 -9 24 1 14 11 15 10 9 -5 -4 -10 -7 -21
-7 -23 0 -3 -6 -2 -13 2 -9 5 -9 4 0 -6 6 -7 9 -20 6 -29 -4 -9 -3 -13 1 -9 4
3 9 13 10 22 1 9 5 16 9 16 4 0 13 0 20 0 8 0 7 -3 -3 -10 -8 -5 -15 -23 -16
-39 0 -16 3 -28 7 -25 4 2 10 0 14 -6 4 -6 11 -8 16 -5 5 4 16 2 25 -3 15 -8
15 -10 0 -15 -11 -5 -15 -3 -10 5 4 7 3 8 -5 4 -8 -6 -9 -12 -2 -20 7 -9 7
-17 -2 -26 -9 -10 -9 -11 0 -6 7 4 13 4 14 -1 4 -49 24 -69 48 -50 11 9 10 4
-3 -17 -10 -16 -13 -26 -8 -22 6 3 13 2 17 -4 4 -6 11 -8 16 -5 5 4 9 1 9 -5
0 -6 5 -8 13 -4 9 6 9 5 0 -8 -14 -16 -8 -28 10 -24 7 2 9 1 5 -1 -5 -3 -8 -9
-8 -14 0 -6 4 -8 9 -4 12 7 33 -29 23 -40 -4 -5 1 -5 11 -2 9 4 17 2 17 -3 0
-13 -27 -13 -35 0 -4 6 -11 8 -16 5 -5 -4 -9 -1 -9 4 0 6 5 11 10 11 6 0 10 4
10 9 0 7 -14 8 -38 2 -1 -1 2 -10 8 -22 7 -11 14 -18 17 -16 2 3 13 -2 23 -11
18 -15 18 -16 2 -29 -15 -11 -13 -12 10 -4 25 9 26 8 22 -15 -2 -13 -1 -23 3
-22 5 1 24 -8 43 -20 19 -12 29 -22 22 -22 -8 0 -12 -6 -9 -12 2 -7 13 -12 23
-11 10 1 13 0 6 -3 -6 -3 -10 -10 -7 -15 4 -5 -1 -6 -9 -3 -8 3 -20 19 -26 35
-7 16 -17 26 -23 22 -6 -3 -7 -1 -3 5 10 17 1 15 -14 -4 -8 -8 -9 -14 -4 -13
22 4 32 -3 44 -31 7 -16 19 -30 27 -30 8 0 11 -5 8 -10 -4 -6 -10 -8 -14 -6
-4 3 -8 -1 -8 -9 0 -8 4 -12 8 -9 5 2 16 -7 25 -21 13 -20 19 -23 25 -13 5 7
9 10 10 6 1 -5 3 -12 4 -18 1 -5 3 -15 4 -22 0 -6 4 -8 8 -5 3 4 12 2 20 -4 9
-9 13 -8 13 0 0 6 5 11 10 11 6 0 5 -8 -2 -20 -7 -11 -14 -16 -16 -10 -2 6 -9
7 -14 4 -7 -5 -8 -2 -3 6 5 8 4 11 -3 7 -12 -8 -10 -32 3 -44 4 -4 5 -2 0 6
-5 9 -3 12 6 9 8 -3 21 1 30 8 13 12 16 12 16 -1 0 -8 -3 -12 -7 -10 -3 2 -11
-4 -17 -14 -9 -14 -8 -18 3 -18 7 0 11 4 8 9 -3 4 0 8 6 8 6 0 8 -14 6 -35 -3
-19 -1 -33 3 -30 5 2 17 -2 27 -10 18 -14 18 -14 -4 -10 -13 2 -20 0 -17 -6 4
-5 10 -7 15 -4 4 3 10 -1 13 -7 3 -10 8 -10 18 1 8 8 9 11 4 8 -6 -3 -11 2
-11 12 0 10 6 18 12 18 8 0 11 -11 9 -26 -1 -14 -4 -26 -5 -26 -1 0 -3 -8 -5
-18 -2 -9 1 -15 6 -11 5 3 7 10 4 15 -4 5 1 9 10 9 11 0 15 -5 11 -15 -8 -20
-14 -42 -9 -32 8 13 25 8 20 -6 -3 -8 1 -14 9 -14 7 0 11 3 9 7 -2 3 1 12 7
20 8 13 9 13 5 -1 -6 -19 5 -40 24 -42 26 -4 40 -19 34 -37 -3 -10 0 -24 8
-32 7 -7 12 -20 10 -28 -4 -13 -3 -13 6 0 7 10 6 18 -1 28 -8 9 -8 16 1 25 10
9 11 8 5 -7 -5 -12 -4 -17 3 -13 6 4 9 -6 8 -26 -1 -20 -6 -31 -14 -29 -7 1
-10 -2 -6 -8 5 -7 11 -8 19 -1 13 11 57 11 50 0 -2 -4 6 -15 18 -25 15 -10 17
-14 6 -11 -10 4 -20 2 -23 -4 -4 -5 -3 -9 2 -8 4 1 15 1 23 0 13 -1 13 -2 0
-12 -12 -8 -10 -9 7 -4 18 5 22 3 17 -9 -3 -9 -1 -16 4 -16 6 0 13 8 15 18 4
16 5 16 6 0 0 -10 6 -18 11 -18 6 0 10 -7 10 -16 0 -9 6 -14 13 -11 8 3 14 -4
15 -16 0 -13 -2 -17 -6 -10 -5 8 -13 9 -22 3 -13 -8 -12 -10 3 -10 9 0 17 -5
17 -11 0 -6 7 -8 15 -5 9 3 18 -1 21 -9 9 -23 23 -18 18 7 -2 13 -1 16 2 8 4
-8 13 -19 21 -23 15 -9 8 -27 -10 -27 -7 0 -6 4 3 10 9 6 10 10 3 10 -17 0
-23 -14 -13 -30 7 -11 11 -11 24 -1 14 12 16 11 14 -10 -2 -13 2 -23 8 -22 6
1 17 -9 24 -22 7 -14 18 -25 23 -25 5 0 5 5 -1 13 -8 9 -8 17 0 27 8 12 9 12
4 -3 -3 -11 0 -20 10 -24 13 -5 13 -8 -3 -26 -18 -20 -18 -20 8 -3 25 15 27
15 33 0 5 -12 2 -15 -11 -10 -10 3 -6 -3 9 -14 17 -14 25 -27 22 -38 -5 -14
-4 -14 4 -2 6 8 9 17 6 21 -2 4 3 12 10 18 11 10 14 9 12 -3 -1 -9 -5 -19 -9
-22 -15 -15 -6 -26 10 -13 11 10 14 10 9 1 -4 -7 -2 -12 4 -12 6 0 8 -5 4 -12
-4 -7 -3 -8 5 -4 6 4 9 11 7 15 -3 4 4 8 15 8 10 1 19 -3 19 -8 0 -6 -4 -7
-10 -4 -6 3 -9 -4 -8 -19 1 -13 5 -23 9 -20 4 2 9 -2 11 -8 5 -15 60 -17 70
-3 4 5 6 0 5 -12 -1 -15 -5 -19 -13 -13 -12 11 -24 3 -24 -14 0 -6 5 -4 10 4
5 8 10 10 10 4 0 -7 7 -15 16 -18 8 -3 12 -2 9 4 -3 6 -1 10 5 10 6 0 8 5 5
10 -3 6 6 5 20 -2 15 -7 22 -14 16 -16 -9 -3 -8 -8 1 -20 12 -15 11 -15 -4 -4
-11 9 -22 11 -34 4 -11 -6 -13 -11 -5 -16 6 -4 11 -2 11 3 0 6 5 11 11 11 5 0
7 -6 3 -12 -4 -7 -4 -10 1 -6 4 4 15 2 23 -5 13 -9 14 -9 8 0 -4 7 -2 13 3 13
6 0 11 -7 11 -16 0 -12 -6 -15 -21 -11 -13 4 -18 2 -13 -3 5 -5 22 -11 38 -14
16 -3 33 -11 38 -18 4 -7 8 -8 8 -3 0 15 -16 37 -26 35 -5 -1 -10 4 -12 12 -2
9 0 8 7 -2 6 -8 11 -11 11 -7 0 4 8 4 17 -2 10 -5 17 -21 18 -38 0 -22 4 -27
19 -25 12 2 16 -1 10 -9 -4 -7 -3 -10 4 -5 6 3 9 16 7 28 -3 11 -1 18 2 14 11
-11 13 -40 3 -51 -7 -8 -5 -12 5 -12 8 0 11 5 8 10 -4 7 1 8 12 3 15 -5 16 -4
5 8 -6 9 -10 21 -7 28 3 8 6 6 6 -5 1 -10 5 -16 9 -13 4 2 9 -7 10 -20 1 -14
-2 -23 -7 -20 -11 7 -8 -21 4 -31 4 -4 5 -3 1 4 -7 13 10 28 18 15 2 -4 23 -7
45 -6 41 1 54 -9 26 -19 -8 -4 -17 -2 -20 3 -4 6 -12 10 -18 9 -9 0 -8 -2 1
-6 6 -2 10 -8 7 -13 -6 -9 26 -7 65 4 16 5 20 4 12 -2 -10 -7 -5 -12 18 -22
23 -9 28 -15 18 -21 -19 -13 -36 -11 -18 2 13 9 12 10 -3 5 -12 -4 -16 -2 -11
6 4 6 3 8 -4 4 -5 -3 -12 0 -15 6 -3 10 -8 10 -18 -1 -8 -8 -9 -11 -3 -8 6 3
18 -2 26 -12 12 -15 13 -22 5 -31 -7 -7 0 -5 15 4 25 16 27 16 36 0 8 -15 13
-16 25 -6 12 10 17 10 23 1 4 -8 3 -9 -4 -5 -7 4 -12 2 -12 -3 0 -15 13 -14
29 2 11 10 13 9 8 -5 -4 -12 0 -15 18 -13 14 1 22 -1 20 -5 -3 -4 2 -14 11
-21 13 -10 17 -10 25 2 8 10 9 9 4 -7 -4 -14 0 -24 9 -27 10 -4 13 -1 10 8 -6
15 11 15 41 -2 11 -6 25 -11 30 -12 6 -1 11 -5 11 -11 3 -23 5 -24 14 -10 7
11 9 7 7 -15 -2 -24 2 -30 20 -30 12 0 25 -3 29 -8 12 -12 24 -8 24 7 0 11 -9
14 -34 12 -26 -3 -33 0 -29 10 6 17 15 18 31 2 9 -9 12 -9 12 3 1 9 7 7 19 -8
11 -13 25 -23 33 -23 10 0 9 3 -2 10 -10 6 -11 10 -3 10 7 0 18 -9 25 -19 7
-11 18 -17 27 -13 14 5 14 4 1 -10 -11 -11 -17 -12 -22 -4 -5 7 -8 7 -8 0 0
-19 12 -24 34 -12 20 11 20 10 6 -7 -16 -20 -16 -20 38 2 7 3 12 2 11 -3 -4
-22 2 -34 16 -34 8 0 15 5 15 11 0 5 -4 7 -10 4 -6 -3 -7 1 -4 10 8 20 24 6
27 -23 0 -11 4 -19 8 -16 4 2 12 -4 18 -13 6 -10 11 -12 11 -5 0 16 20 16 20
-1 0 -7 8 -17 18 -24 15 -9 21 -7 30 8 12 19 42 16 42 -3 0 -7 -5 -6 -14 1
-11 9 -15 8 -20 -5 -9 -23 -7 -31 3 -15 8 12 13 12 24 3 11 -10 17 -9 26 2 9
11 9 15 -1 19 -7 3 -3 4 9 4 15 -1 19 -5 13 -11 -14 -14 -12 -26 3 -24 6 2 11
-2 10 -9 -1 -6 3 -10 10 -9 14 2 21 21 8 21 -5 0 -13 3 -17 8 -15 14 16 7 47
-12 18 -11 26 -22 20 -25 -6 -4 -11 -13 -10 -19 0 -9 2 -9 6 1 2 6 9 12 14 12
6 0 8 -4 5 -9 -4 -5 2 -8 11 -6 26 4 55 -14 47 -28 -5 -9 -3 -8 6 0 12 11 11
15 -6 27 -10 8 -16 18 -11 22 4 4 7 2 7 -4 0 -7 5 -12 11 -12 5 0 7 5 3 12 -4
7 -3 8 5 4 6 -4 9 -12 6 -17 -10 -15 7 -10 29 8 18 15 18 14 -1 -8 -13 -14
-23 -29 -23 -35 0 -5 4 -5 8 1 10 14 55 39 47 26 -8 -14 1 -14 27 0 13 7 18 7
14 1 -3 -6 -2 -13 4 -17 13 -8 13 -25 0 -25 -6 0 -9 5 -8 11 2 6 -4 14 -12 16
-13 4 -13 3 0 -6 13 -10 13 -11 0 -11 -12 -1 -11 -3 3 -11 9 -5 23 -7 29 -3
19 12 58 14 58 3 0 -6 4 -8 9 -4 5 3 12 1 16 -4 3 -6 12 -8 20 -4 8 3 15 0 15
-7 0 -6 4 -9 9 -5 5 3 16 -2 25 -10 12 -12 20 -13 35 -5 25 13 31 13 31 -1 0
-5 -4 -8 -9 -4 -5 3 -13 0 -17 -6 -5 -8 -3 -9 6 -4 10 6 12 4 7 -8 -10 -26 1
-20 18 11 9 15 14 20 12 11 -3 -9 -1 -22 5 -30 8 -11 9 -11 5 3 -4 10 1 18 11
20 22 6 42 -1 42 -14 0 -7 -5 -6 -14 1 -11 9 -16 9 -22 0 -4 -8 -3 -9 4 -5 7
4 12 3 12 -2 0 -6 7 -13 16 -16 8 -3 12 -2 9 4 -3 6 -1 11 4 11 6 1 16 2 23 3
6 0 13 7 16 15 3 9 0 11 -8 6 -9 -5 -11 -4 -6 4 8 13 26 6 26 -11 0 -6 -12
-22 -27 -36 l-28 -25 27 16 c35 22 38 21 33 -4 -3 -12 -2 -19 2 -15 3 3 13 0
22 -7 14 -11 14 -10 2 6 -7 9 -10 17 -5 17 4 0 3 5 -4 12 -7 7 -12 17 -12 22
0 6 5 4 10 -5 7 -12 21 -16 52 -13 24 1 35 -1 26 -4 -16 -6 -15 -9 3 -32 15
-18 18 -20 10 -4 -7 15 -6 22 8 31 14 9 17 7 19 -11 1 -17 -1 -18 -9 -6 -8 12
-10 12 -7 1 5 -18 26 -21 56 -10 14 5 20 13 16 20 -4 7 -3 9 4 6 5 -4 8 -17 4
-29 -5 -19 -4 -20 10 -7 9 7 13 19 10 24 -3 6 1 4 10 -2 8 -7 18 -10 21 -6 4
3 7 2 7 -3 0 -6 -5 -15 -10 -20 -7 -7 -6 -11 4 -11 8 0 13 4 10 9 -3 4 4 8 15
8 11 0 23 -5 27 -11 5 -8 10 -7 16 4 5 10 15 14 25 10 9 -4 14 -2 10 3 -3 6 5
10 18 10 26 0 41 -21 23 -32 -6 -4 -8 -3 -4 4 4 7 -1 10 -14 9 -11 -1 -20 -5
-20 -9 0 -7 24 -12 44 -9 14 3 36 -21 30 -33 -4 -6 5 0 18 14 14 14 23 27 21
30 -3 3 -10 -3 -17 -12 -12 -16 -14 -15 -25 10 -10 23 -9 25 2 10 11 -13 16
-15 25 -6 9 9 16 8 30 -6 9 -11 12 -16 6 -12 -12 6 -29 -22 -19 -32 3 -3 5 0
5 6 0 6 9 14 21 17 16 5 18 10 8 21 -15 18 -2 18 17 0 17 -17 18 -27 3 -24 -6
2 -14 -4 -16 -12 -3 -9 -1 -11 4 -5 11 15 35 13 41 -4 3 -9 0 -11 -9 -6 -8 5
-11 4 -6 -1 10 -11 58 -14 51 -2 -3 4 -10 6 -15 3 -13 -9 -11 9 4 25 10 12 9
12 -3 3 -12 -9 -17 -7 -27 12 -8 18 -8 24 1 22 6 -1 10 4 8 11 -1 8 2 11 8 7
8 -5 8 -11 1 -19 -14 -17 -2 -29 15 -15 9 7 19 6 33 -3 24 -15 27 -25 7 -25
-8 0 -14 5 -13 10 1 5 -3 11 -10 14 -6 2 -10 -4 -9 -14 3 -17 21 -23 69 -24 9
0 15 -4 12 -9 -3 -6 1 -7 9 -4 9 3 16 10 16 16 0 5 -4 7 -8 4 -5 -3 -9 1 -9 8
0 8 6 12 14 9 12 -5 17 -16 15 -34 -1 -3 6 -6 13 -6 11 0 12 4 3 14 -8 10 -8
17 1 26 10 9 11 8 6 -5 -4 -10 -3 -18 3 -18 6 0 13 8 16 18 4 10 14 19 22 19
14 0 15 -2 2 -11 -16 -12 -20 -46 -5 -46 5 0 6 7 3 16 -3 8 -2 12 3 9 5 -3 12
4 16 15 6 18 26 29 24 13 -4 -26 17 -45 53 -48 3 0 10 -3 14 -7 4 -5 12 -8 18
-8 6 0 3 5 -6 11 -10 5 -18 18 -17 27 0 11 3 12 6 4 2 -6 10 -9 15 -6 7 5 8 2
3 -6 -5 -8 -3 -11 6 -8 8 3 13 11 11 17 -1 7 2 10 8 6 6 -3 8 -10 6 -14 -3 -4
0 -13 6 -21 8 -12 9 -12 4 3 -3 9 -1 17 5 17 6 0 7 6 3 13 -5 7 -1 7 10 -2 15
-13 19 -13 27 0 6 10 9 11 9 1 0 -7 4 -10 10 -7 6 3 10 1 10 -5 0 -7 -7 -10
-15 -6 -8 3 -15 1 -15 -4 0 -11 11 -13 34 -4 8 3 12 13 9 22 -3 9 4 4 16 -13
11 -16 21 -25 21 -19 0 5 -5 15 -11 21 -8 8 -7 13 2 18 8 6 10 4 4 -5 -6 -10
-4 -12 8 -7 9 3 19 1 23 -5 4 -7 3 -8 -4 -4 -7 4 -12 2 -12 -4 0 -7 7 -9 16
-6 9 3 17 6 20 6 2 0 1 8 -3 17 -5 15 -3 14 10 -2 8 -11 13 -24 10 -29 -4 -5
-1 -6 6 -2 9 6 9 11 1 21 -8 10 -8 15 1 21 8 4 9 3 5 -4 -5 -8 2 -12 19 -12
17 0 24 4 19 12 -4 7 -3 8 5 4 6 -4 9 -12 6 -17 -4 -5 -1 -10 4 -10 6 -1 17
-2 24 -3 18 -3 28 4 21 15 -3 6 -12 5 -22 -3 -10 -7 -14 -8 -10 -4 4 5 2 16
-5 25 -10 13 -10 14 3 6 23 -17 70 -18 70 -3 0 10 3 10 9 -2 13 -19 4 -30 -17
-24 -15 5 -14 4 1 -6 15 -10 21 -8 32 7 10 13 10 20 2 25 -7 4 -7 8 -2 8 6 0
17 -5 25 -10 13 -9 13 -11 0 -19 -8 -6 -11 -14 -6 -18 5 -4 11 -2 13 5 4 9 9
10 17 3 9 -8 13 -7 13 4 0 8 -4 12 -9 9 -4 -3 -8 0 -8 5 0 6 9 10 20 8 22 -4
40 -17 22 -17 -7 0 -12 -4 -12 -8 0 -5 6 -9 14 -9 14 0 14 25 0 50 -5 8 -2 8
9 -2 14 -11 17 -11 18 0 1 8 1 18 0 22 -1 5 3 6 9 2 6 -3 7 -11 4 -17 -9 -14
-14 -58 -7 -58 2 0 12 8 21 17 16 16 16 16 -1 10 -11 -4 -16 -3 -12 4 4 5 16
7 27 3 16 -5 18 -3 12 7 -10 17 -15 43 -6 34 4 -4 7 -12 7 -18 0 -7 9 -11 19
-10 15 1 13 -4 -10 -22 -16 -14 -23 -24 -16 -25 6 0 12 4 12 9 0 14 37 20 51
7 10 -8 10 -7 0 7 -11 13 -11 20 -1 32 7 8 16 12 21 9 8 -5 13 10 10 29 -1 5
3 6 8 2 6 -3 7 -13 4 -23 -6 -15 -5 -15 10 -3 10 8 24 10 34 6 10 -5 25 -7 33
-6 24 4 5 -9 -21 -14 -30 -6 -55 -30 -40 -40 6 -3 11 -3 10 2 -3 20 2 27 11
13 8 -13 10 -12 10 4 0 16 2 17 17 5 9 -8 14 -9 10 -3 -10 17 21 26 43 14 13
-7 21 -7 26 2 4 7 3 8 -4 4 -8 -5 -12 0 -12 12 0 11 7 23 16 26 14 5 15 4 4
-9 -16 -19 -9 -19 36 0 19 8 38 15 42 17 4 2 6 7 4 11 -1 5 2 6 8 2 8 -5 7
-11 -1 -21 -9 -11 -9 -14 1 -14 8 0 10 -3 7 -6 -4 -4 -14 -1 -24 7 -14 12 -16
12 -8 0 5 -10 4 -12 -3 -7 -7 4 -19 3 -28 -2 -15 -8 -15 -10 0 -15 10 -4 14
-3 11 3 -3 5 9 8 27 7 19 -1 33 3 33 10 0 17 15 28 16 12 1 -8 1 -18 0 -22 -1
-5 3 -6 8 -3 5 4 8 19 6 34 -4 26 -4 26 7 5 12 -25 31 -32 22 -9 -3 8 0 17 6
21 6 3 10 3 9 -2 -3 -20 2 -34 11 -28 6 4 8 10 5 15 -3 4 2 13 10 20 12 10 13
8 10 -9 -2 -12 2 -21 8 -22 64 -6 84 -4 84 7 0 7 -5 10 -11 7 -6 -4 -5 0 1 9
7 8 11 17 8 20 -3 3 2 11 12 19 15 12 16 12 8 -1 -13 -21 -15 -39 -4 -46 5 -3
7 -10 4 -15 -4 -5 -2 -9 4 -9 5 0 8 13 6 30 -2 16 -1 30 1 30 13 0 53 -33 49
-40 -3 -5 -1 -11 4 -14 16 -10 6 23 -13 46 -15 17 -16 20 -3 15 9 -3 19 -2 22
4 4 5 11 7 16 4 5 -4 9 -1 9 5 0 7 5 6 14 -2 8 -7 12 -16 10 -19 -2 -3 3 -6
10 -6 7 0 13 6 13 13 0 7 -4 12 -8 11 -8 -2 -9 3 -9 31 0 11 6 6 16 -13 21
-42 38 -57 25 -23 -8 22 -7 26 7 23 9 -2 19 -4 22 -4 3 -1 -2 -6 -10 -11 -8
-5 -10 -10 -5 -11 6 0 18 -2 28 -4 17 -3 17 -2 3 20 -13 20 -13 23 -2 19 8 -3
17 -12 20 -20 3 -8 11 -14 18 -14 9 0 8 3 -2 10 -13 8 -12 10 3 10 10 0 20 -7
24 -16 4 -12 9 -10 24 12 10 15 16 31 13 35 -4 8 43 2 57 -6 13 -8 29 22 23
41 -6 17 -5 17 9 -1 14 -17 16 -18 17 -3 0 9 5 20 12 24 7 5 8 3 3 -6 -6 -10
-4 -12 8 -7 10 4 17 1 17 -6 0 -8 3 -8 8 -2 15 21 61 35 86 25 13 -5 27 -6 30
-3 3 4 6 1 6 -6 0 -8 5 -7 16 4 14 13 14 19 4 28 -10 9 -11 9 -6 0 3 -6 1 -15
-6 -19 -7 -4 -10 -4 -6 1 4 4 2 15 -5 23 -7 10 -8 13 -1 9 7 -4 17 0 24 8 15
18 31 10 23 -10 -3 -8 0 -15 6 -15 6 0 10 3 10 8 -3 19 3 22 24 11 19 -11 20
-10 10 2 -8 10 -9 19 -1 29 8 13 9 12 5 -2 -6 -16 20 -35 31 -23 3 3 0 5 -6 5
-7 0 -12 5 -12 11 0 7 10 5 25 -5 29 -19 32 -15 8 10 -17 17 -17 17 -1 11 11
-4 21 0 27 11 5 9 18 17 28 17 10 0 17 5 16 10 -1 6 7 11 17 11 10 0 17 -3 14
-7 -2 -4 8 -7 21 -7 14 0 25 5 25 10 0 5 -4 7 -9 4 -5 -3 -15 2 -22 12 -13 15
-12 16 3 4 14 -11 18 -10 26 4 8 15 9 15 16 -1 3 -9 3 -22 0 -28 -3 -7 1 -4 9
6 16 20 47 23 47 5 0 -7 5 -5 11 5 6 9 15 15 20 11 5 -3 8 0 7 7 -2 7 6 13 17
14 15 0 20 7 20 26 -1 14 4 26 11 26 6 0 9 -9 7 -21 -4 -16 -2 -18 5 -7 6 8
17 11 27 8 9 -4 14 -3 10 2 -3 5 1 12 7 15 7 3 2 3 -12 0 -22 -4 -23 -4 -7 6
15 9 22 8 38 -6 10 -9 22 -14 26 -11 3 4 0 7 -7 7 -9 0 -7 5 5 14 11 8 23 12
27 10 4 -3 6 1 3 8 -3 7 8 22 24 33 21 14 27 22 18 28 -8 6 -5 7 7 3 10 -4 26
-1 35 6 9 7 13 8 9 4 -5 -5 2 -16 14 -24 19 -14 22 -13 33 1 7 9 16 13 21 9 4
-4 2 1 -5 10 -15 20 -33 15 -24 -7 3 -8 0 -15 -6 -15 -10 0 -15 19 -8 38 1 4
12 7 24 6 19 0 20 2 10 15 -9 12 -6 12 16 -2 18 -11 26 -13 25 -5 -2 7 7 13
20 14 12 1 26 5 30 9 4 5 -1 5 -10 2 -10 -3 -20 -2 -23 4 -4 5 -3 9 2 8 20 -3
34 2 28 11 -3 5 0 7 9 4 8 -3 12 -12 9 -20 -3 -8 0 -14 7 -14 6 0 8 5 5 10 -3
6 2 10 12 10 14 1 13 4 -7 15 -25 15 -25 15 10 10 24 -4 31 -2 20 4 -8 5 -18
7 -22 5 -4 -3 -8 0 -8 6 0 7 7 9 16 6 12 -4 14 -1 9 13 -3 11 0 23 6 27 7 4 9
3 6 -4 -8 -12 1 -42 13 -42 5 0 6 10 3 23 -3 15 -2 18 4 9 6 -7 18 -10 29 -6
18 6 18 6 -1 -10 -19 -17 -19 -17 5 -4 14 7 32 11 40 9 8 -2 13 -1 10 1 -44
33 -44 33 -35 19 6 -10 4 -12 -4 -7 -9 6 -9 12 3 25 9 10 13 22 9 26 -5 5 0 3
10 -4 10 -8 17 -9 17 -3 0 6 9 14 20 17 12 4 17 11 14 18 -4 7 -4 9 1 5 4 -4
13 -4 19 2 7 5 17 5 26 0 13 -9 13 -10 0 -11 -8 -1 -19 -1 -23 0 -5 1 -5 -4
-1 -10 4 -8 3 -9 -4 -5 -6 4 -20 -2 -32 -14 -21 -21 -26 -40 -10 -40 6 0 9 3
9 7 -4 27 1 35 16 23 13 -11 14 -10 9 5 -5 12 -4 16 4 11 6 -3 13 -2 17 4 9
15 28 12 19 -2 -4 -8 -3 -10 2 -5 5 5 10 13 10 18 1 5 2 14 3 20 0 5 6 7 11 4
6 -3 10 -1 10 5 0 7 -6 10 -13 7 -19 -7 -43 8 -28 17 6 4 11 2 11 -4 0 -6 4
-9 10 -5 5 3 6 13 3 23 -4 10 2 7 15 -8 12 -14 22 -23 22 -20 9 37 8 41 -8 35
-9 -3 -13 -2 -8 2 4 4 18 8 31 8 19 1 22 -2 13 -12 -7 -9 -7 -13 1 -13 10 0
15 13 12 33 -2 13 11 8 26 -11 12 -15 12 -14 2 10 -7 15 -16 25 -21 21 -6 -3
-3 6 6 20 10 14 25 24 34 22 9 -1 25 2 36 7 12 7 16 7 12 0 -3 -6 -1 -14 5
-18 7 -4 9 -3 6 2 -3 6 3 15 14 22 14 9 19 9 19 0 0 -6 2 -9 5 -7 8 9 -7 49
-16 43 -5 -3 -7 -9 -4 -14 3 -5 0 -12 -6 -16 -8 -5 -9 -3 -4 6 6 10 4 12 -8 7
-25 -9 -21 -2 10 18 15 10 36 18 47 19 12 1 21 7 21 14 0 6 5 12 10 11 10 -1
10 -2 0 -34 -6 -20 -6 -20 6 0 7 11 13 29 14 40 1 11 8 21 16 21 8 1 19 3 24
4 6 1 13 2 17 1 4 0 5 5 2 13 -3 8 0 17 7 22 8 4 10 3 5 -4 -4 -7 -2 -12 3
-12 6 0 11 7 11 15 0 8 5 15 10 15 6 0 10 5 10 11 0 5 -4 8 -9 4 -5 -3 -12 -1
-15 4 -3 5 8 8 25 7 19 -1 33 3 36 12 4 10 8 10 13 2 5 -8 9 -7 13 3 4 10 0
14 -11 12 -9 -2 -21 -4 -25 -4 -5 -1 -5 -7 -1 -14 5 -8 2 -8 -9 2 -18 15 -23
26 -7 16 6 -3 10 -2 10 2 0 5 10 9 21 10 26 2 28 4 32 33 3 19 11 25 33 27 20
1 24 -1 15 -6 -8 -5 -21 -7 -30 -3 -9 3 -13 2 -9 -2 3 -4 18 -9 32 -10 15 -2
24 -1 22 2 -3 2 -1 13 5 23 8 15 6 18 -8 13 -15 -5 -16 -4 -3 5 13 9 12 12 -5
26 -20 16 -20 16 2 5 17 -8 24 -7 31 6 6 10 12 13 16 6 3 -5 -1 -13 -10 -16
-17 -6 -10 -26 9 -26 7 0 6 4 -3 10 -13 9 -13 10 0 11 8 1 19 1 24 0 10 -2
-12 29 -29 41 -6 5 -6 8 2 8 6 0 20 -8 29 -17 16 -17 17 -17 11 -1 -4 12 0 19
14 23 10 4 19 11 19 16 0 5 8 9 18 9 14 0 15 2 2 10 -13 8 -13 11 -1 22 8 7
11 8 8 2 -7 -12 21 -29 31 -19 3 3 0 5 -6 5 -6 0 -10 13 -10 29 1 20 7 31 21
35 10 2 16 9 12 15 -4 7 0 8 11 4 11 -4 15 -2 11 4 -4 6 0 14 9 17 8 3 13 10
9 15 -3 5 -1 12 5 16 6 4 7 11 4 17 -4 6 3 4 17 -5 33 -24 46 -21 18 3 -15 12
-17 18 -8 14 10 -3 20 -1 24 5 3 6 -2 11 -12 11 -14 0 -12 3 7 13 15 8 24 21
23 33 -1 10 0 13 3 7 7 -17 26 -17 22 0 -2 6 2 13 7 13 6 1 9 -3 7 -9 -2 -5 7
-3 20 5 13 9 24 21 24 27 1 6 2 16 3 22 0 5 6 7 13 3 7 -4 8 -3 4 5 -4 6 0 14
9 17 13 6 14 8 3 15 -20 13 -31 11 -24 -6 4 -12 2 -13 -13 -6 -10 6 -21 8 -25
6 -3 -3 -3 -2 0 2 3 5 9 8 12 8 21 1 53 28 48 40 -3 8 0 17 6 21 7 4 8 3 4 -4
-4 -7 -2 -12 5 -12 10 0 10 -3 1 -12 -15 -15 -15 -28 0 -28 6 0 8 3 5 7 -8 8
13 34 22 28 8 -4 11 10 13 57 0 20 4 25 17 20 14 -5 14 -4 1 13 -15 19 -15 19
15 1 17 -10 27 -15 22 -11 -4 5 1 17 10 28 10 10 17 21 16 23 -8 12 -1 24 10
18 8 -5 8 -2 -2 9 -7 9 -10 17 -5 17 5 0 0 8 -11 17 -16 12 -16 14 -3 10 20
-7 35 9 16 16 -10 4 -10 6 0 6 7 1 10 6 6 13 -4 6 -3 8 4 5 11 -7 11 -25 0
-43 -4 -6 -1 -20 8 -30 14 -18 15 -18 5 3 -7 13 -7 24 -2 27 5 4 11 0 14 -6 3
-10 8 -10 18 1 9 9 10 11 1 7 -7 -4 -15 0 -19 10 -4 10 -2 19 5 22 7 2 12 8
12 13 0 6 -4 8 -9 4 -5 -3 -13 -1 -16 5 -4 6 -3 10 2 9 22 -4 44 2 38 11 -3 5
-13 6 -23 3 -16 -6 -16 -6 1 11 9 9 17 20 17 24 0 4 4 14 10 22 7 12 12 11 31
-5 l23 -20 -18 28 c-17 28 -17 28 3 17 12 -6 21 -7 21 -1 0 5 -7 12 -15 15
-12 4 -13 10 -6 25 6 10 7 22 3 26 -4 5 -1 5 6 1 11 -7 17 6 12 29 -1 5 9 1
22 -10 22 -19 22 -19 8 -1 -13 18 -13 19 1 14 12 -5 16 0 15 20 0 15 -3 29 -6
32 -4 3 3 14 14 24 19 19 19 19 12 1 -4 -11 -4 -16 0 -12 4 4 14 1 22 -6 13
-11 14 -9 1 13 -8 14 -18 29 -24 33 -6 5 -2 6 8 3 11 -3 20 0 23 9 4 8 10 12
15 9 5 -3 6 3 2 12 -4 11 -2 15 4 11 6 -4 8 3 5 18 -5 27 6 32 27 12 11 -9 11
-7 0 10 -11 19 -16 20 -27 10 -7 -7 -14 -24 -17 -37 -6 -32 -21 -45 -29 -25
-3 9 -2 13 3 10 5 -3 12 -1 16 5 3 5 1 10 -5 10 -7 0 -5 7 4 16 9 8 13 20 10
26 -4 6 -2 8 3 5 6 -4 15 -1 21 6 10 12 12 17 12 38 0 5 5 7 10 4 10 -6 14 8
10 35 -1 8 -9 20 -18 26 -14 10 -14 12 -2 11 8 -1 16 3 18 8 2 6 10 14 18 18
8 5 12 13 9 18 -4 5 -11 6 -17 3 -7 -4 -8 -2 -4 5 6 8 12 9 20 2 7 -6 17 -7
21 -3 5 4 5 1 1 -5 -4 -7 -2 -13 4 -13 8 0 11 14 8 39 -3 34 -1 38 11 28 11
-9 13 -9 8 0 -4 6 -2 15 4 18 5 4 8 13 5 20 -5 14 17 39 26 30 2 -3 5 2 5 9 0
8 -3 15 -6 14 -21 -2 -31 4 -31 20 0 14 2 15 10 2 11 -18 23 -8 14 14 -3 9
-11 13 -17 9 -6 -3 -7 -1 -3 6 4 6 12 9 17 6 8 -6 13 8 10 27 0 4 8 12 19 18
15 8 20 8 20 -1 0 -7 3 -9 6 -6 4 4 1 13 -6 22 -12 14 -7 20 15 15 6 -1 4 4
-3 12 -11 11 -14 10 -22 -2 -5 -8 -13 -11 -17 -6 -4 5 -2 11 5 13 10 4 10 8 1
20 -10 11 -10 14 1 11 20 -4 19 44 0 60 -13 11 -12 12 5 4 21 -11 29 -62 11
-75 -7 -6 -6 -7 4 -4 8 2 15 10 15 18 0 8 5 17 10 21 6 5 6 8 -1 8 -6 0 -10
10 -10 22 1 13 -2 28 -6 35 -6 7 -4 14 3 19 8 5 9 3 4 -6 -6 -10 -4 -12 8 -7
9 3 19 1 23 -5 4 -6 3 -8 -3 -5 -6 4 -14 0 -17 -8 -4 -13 -2 -13 14 -5 12 7
17 16 13 27 -4 10 -2 14 5 9 7 -4 10 1 7 14 -2 11 4 27 13 37 16 16 16 16 0
11 -14 -6 -16 -2 -11 30 3 20 7 39 9 41 2 2 -1 10 -7 18 -6 7 -8 13 -4 13 4 0
2 6 -4 14 -14 17 -4 46 17 46 13 0 12 -3 -4 -14 -10 -8 -16 -17 -13 -21 4 -3
14 2 23 11 12 11 14 20 7 27 -6 6 -3 16 12 29 12 11 16 16 8 12 -9 -4 -12 -2
-9 7 3 8 11 13 17 11 6 -1 11 2 11 7 0 6 -9 9 -20 8 -11 -1 -20 -5 -20 -10 0
-4 -5 -5 -10 -2 -7 4 -3 14 10 25 12 10 21 22 20 26 -1 5 4 10 12 12 8 2 9 0
3 -5 -14 -11 -17 -33 -5 -33 5 0 10 6 10 14 0 8 6 17 13 19 9 4 9 6 -1 6 -7 1
-10 5 -7 11 3 5 0 20 -6 32 -12 22 -11 22 6 8 17 -14 18 -14 6 8 -16 31 -22
64 -10 57 5 -4 6 -11 3 -17 -4 -7 -2 -8 5 -4 6 4 8 12 5 18 -5 8 -1 9 10 5 10
-4 15 -3 11 3 -3 6 -13 10 -21 10 -8 0 -14 5 -14 11 0 5 4 7 10 4 6 -4 7 1 3
12 -6 16 -5 17 13 3 18 -14 18 -14 5 3 -11 14 -11 20 0 34 8 9 9 14 3 10 -17
-10 -23 26 -7 41 16 16 8 33 -11 26 -8 -3 -17 -1 -21 5 -4 7 1 8 12 4 16 -6
17 -5 3 12 -12 15 -7 14 20 -5 19 -13 30 -18 23 -10 -11 15 -13 20 -13 40 0 6
-5 10 -11 10 -8 0 -7 -6 2 -17 13 -15 12 -15 -8 -2 -19 11 -20 15 -7 22 12 7
13 12 2 25 -7 9 1 6 17 -8 16 -14 23 -17 16 -7 -10 13 -11 21 -3 29 6 6 8 16
5 23 -3 10 2 12 19 9 21 -4 21 -4 3 5 -14 7 -15 10 -5 10 13 1 13 3 1 10 -12
8 -12 12 -2 24 9 11 9 17 1 22 -6 4 -9 13 -6 21 3 8 -1 14 -10 14 -8 0 -12 -4
-9 -10 3 -5 1 -10 -5 -10 -6 0 -8 -5 -5 -10 4 -6 10 -8 14 -6 4 3 8 -1 8 -9 0
-8 -5 -15 -10 -15 -5 0 -4 -6 2 -14 15 -17 1 -28 -19 -15 -13 7 -13 9 0 9 13
0 13 1 0 10 -10 6 -11 10 -2 10 6 0 12 4 12 10 0 5 -8 7 -17 4 -15 -5 -16 -4
-3 5 8 6 11 11 7 11 -4 0 -3 8 2 18 7 13 6 23 -2 31 -9 9 -9 14 3 21 8 5 18 6
22 4 4 -3 8 0 8 6 0 6 4 8 10 5 6 -3 7 1 3 10 -5 14 -8 14 -15 3 -6 -8 -7 -5
-2 12 6 22 5 23 -9 11 -9 -7 -14 -18 -10 -25 3 -6 2 -7 -2 -3 -11 10 -16 39
-5 32 4 -3 12 1 17 8 13 17 10 62 -4 62 -6 0 -14 3 -18 7 -4 3 1 5 12 3 10 -2
18 -4 18 -5 0 -1 11 -3 25 -6 l25 -4 -23 13 c-12 7 -20 16 -16 20 4 4 13 2 21
-4 9 -9 13 -8 13 0 0 6 -5 11 -10 11 -6 0 -9 3 -9 8 4 21 -3 32 -18 33 -15 0
-15 2 2 8 12 5 23 4 27 -3 12 -17 9 3 -3 26 -10 18 -9 20 7 14 17 -5 17 -5 -1
9 -16 12 -17 18 -7 24 11 7 10 10 -3 15 -9 3 -22 3 -27 -1 -7 -3 -8 -1 -4 6 5
7 17 9 29 5 21 -6 22 -6 2 9 -10 8 -26 13 -35 10 -12 -4 -12 -3 -2 5 8 5 13
13 12 18 -1 5 3 10 9 12 6 2 11 -1 11 -8 0 -6 -5 -8 -12 -4 -7 4 -8 3 -4 -5 4
-6 12 -9 17 -6 5 4 9 1 9 -6 0 -7 3 -10 6 -7 3 4 0 16 -6 29 -11 19 -10 21 4
16 11 -4 15 -3 11 4 -4 6 -13 8 -20 5 -8 -3 -11 2 -8 14 3 10 -1 20 -9 23 -7
2 -5 3 4 2 10 -2 21 2 25 7 3 7 1 8 -5 4 -7 -4 -12 -2 -12 3 0 6 -8 11 -17 12
-15 0 -15 2 2 8 12 5 23 4 28 -3 6 -7 7 -4 3 7 -3 10 -6 22 -6 25 0 4 -5 0
-11 -8 -9 -13 -10 -13 -6 0 2 8 13 14 23 13 18 -1 18 -1 2 11 -18 13 -26 42
-10 32 5 -3 9 1 9 9 0 8 -4 12 -9 9 -5 -3 -6 8 -3 25 3 17 1 31 -4 31 -6 0 -8
-10 -6 -22 4 -16 2 -19 -7 -10 -14 14 -20 44 -7 36 12 -7 11 7 -1 26 -8 12
-10 12 -10 1 0 -8 -3 -11 -6 -8 -8 8 14 37 27 37 5 0 9 -5 9 -11 0 -5 -5 -7
-11 -3 -8 4 -8 0 0 -15 7 -11 17 -21 24 -21 8 0 6 4 -3 10 -12 8 -13 11 -1 19
9 6 10 11 2 15 -6 4 -9 12 -5 18 3 5 -8 2 -26 -7 -17 -9 -34 -14 -38 -11 -3 3
1 6 9 6 10 1 8 5 -6 17 -16 13 -17 15 -2 10 16 -6 25 7 10 16 -5 2 -2 2 5 1
17 -4 15 7 -5 35 -9 14 -12 21 -6 18 6 -4 10 6 11 23 0 17 -5 30 -11 30 -8 0
-7 3 2 9 18 12 5 32 -17 25 -15 -5 -15 -4 1 9 12 10 15 17 7 22 -6 4 -9 13 -6
20 2 7 0 17 -5 22 -6 6 -4 10 5 10 8 0 13 -4 10 -9 -3 -4 2 -5 10 -2 9 3 16
10 16 16 0 5 -4 7 -9 3 -5 -3 -12 -1 -16 5 -4 6 -10 8 -14 6 -4 -3 -8 4 -8 15
-1 10 2 19 7 19 12 0 6 30 -9 40 -8 4 -9 10 -3 14 5 3 8 21 7 40 -3 23 2 40
16 55 11 11 16 21 12 22 -24 2 -46 8 -51 15 -4 4 1 4 10 1 10 -3 20 -2 23 3 4
6 1 10 -4 10 -6 0 -11 4 -11 10 0 5 8 7 18 4 16 -5 16 -5 -1 6 -9 6 -15 15
-12 20 3 5 1 18 -5 29 -7 14 -7 22 1 27 8 5 6 12 -7 22 -13 10 -15 16 -6 19 6
3 12 9 12 15 0 6 -6 5 -15 -2 -9 -7 -13 -20 -10 -29 3 -8 3 -12 -1 -8 -4 4
-13 2 -21 -4 -9 -9 -13 -8 -13 0 0 6 5 11 10 11 18 0 10 19 -11 25 -11 4 -18
9 -16 12 3 2 15 0 26 -7 12 -6 22 -7 22 -3 6 35 5 52 -2 47 -12 -7 -11 10 1
22 7 7 6 11 -4 11 -8 0 -14 -5 -13 -10 1 -5 -6 -11 -15 -12 -10 -2 -18 1 -18
6 0 5 3 9 8 9 4 0 18 9 32 20 l25 20 -29 -10 c-16 -6 -31 -8 -34 -5 -3 3 0 5
6 5 8 0 11 15 7 46 -4 38 -2 44 9 34 11 -8 16 -8 22 1 4 7 3 9 -3 6 -6 -4 -16
0 -23 8 -7 8 -9 15 -4 15 5 0 2 5 -6 11 -13 9 -13 10 0 6 8 -2 14 -10 12 -16
-1 -7 2 -10 8 -6 8 5 8 11 1 19 -6 7 -8 16 -4 20 4 4 -1 4 -12 1 -16 -6 -17
-5 -5 4 11 8 18 7 26 -4 19 -25 26 -17 8 9 -8 14 -21 24 -27 22 -7 -1 -9 -1
-4 1 4 3 5 9 2 13 -7 11 30 32 39 23 3 -3 6 -11 6 -17 0 -6 -5 -4 -10 4 -7 11
-10 11 -10 2 0 -7 -5 -10 -12 -6 -7 4 -8 3 -4 -5 4 -6 11 -9 16 -6 4 3 10 0
12 -6 2 -6 9 1 16 16 7 14 8 24 3 21 -5 -3 -12 1 -15 10 -3 8 -10 12 -16 9 -6
-4 -7 1 -3 10 4 11 8 13 13 5 8 -12 40 -3 40 12 0 6 -6 5 -15 -2 -13 -11 -15
-9 -12 8 2 12 7 25 12 29 4 5 5 2 1 -4 -4 -7 -5 -13 -2 -13 3 0 10 10 17 21 9
17 8 20 -2 14 -7 -5 -10 -4 -5 3 3 5 0 13 -6 16 -7 3 1 3 17 0 17 -3 25 -2 19
3 -13 9 -15 45 -2 37 5 -3 6 -9 3 -14 -3 -4 2 -11 11 -14 8 -3 12 -2 9 4 -7
11 10 47 19 43 12 -6 29 -3 23 3 -3 4 3 14 15 24 16 13 18 19 8 25 -9 6 -11 4
-5 -5 6 -9 4 -11 -5 -5 -9 5 -11 4 -6 -3 5 -8 2 -10 -9 -6 -9 4 -15 3 -14 -2
4 -22 -2 -35 -12 -28 -6 3 -15 0 -20 -7 -7 -10 -8 -8 -6 8 2 12 7 26 12 30 4
5 5 2 1 -4 -4 -8 -1 -13 8 -13 9 0 15 3 15 8 -3 19 2 33 10 27 5 -3 12 -1 16
5 4 6 11 7 17 4 8 -5 9 -1 5 10 -4 10 -3 15 3 11 6 -3 10 -1 10 5 0 6 11 8 24
6 18 -3 23 -1 19 10 -3 8 -8 12 -12 9 -4 -2 -8 2 -8 10 0 12 4 12 20 -2 18
-16 20 -16 14 -1 -4 11 -1 15 11 13 9 -1 27 4 40 12 12 7 28 11 34 7 7 -4 8
-3 4 4 -8 14 39 46 54 37 8 -5 8 -11 -1 -21 -10 -12 -9 -13 5 -8 9 3 16 10 16
14 0 4 12 20 28 35 19 20 21 25 7 17 -17 -9 -20 -7 -20 13 0 12 5 21 11 18 12
-4 28 26 19 35 -3 3 -5 0 -5 -6 0 -7 -5 -12 -11 -12 -5 0 -8 4 -5 8 2 4 1 14
-4 22 -6 10 -4 21 7 32 12 14 13 23 5 45 -6 16 -10 39 -8 53 1 14 -1 35 -5 47
-6 17 -5 21 6 17 8 -3 11 -13 8 -22 -4 -9 -3 -14 1 -11 4 4 9 22 11 40 2 19 1
28 -2 22 -2 -7 -9 -13 -14 -13 -4 0 -5 7 -2 17 4 10 2 14 -4 10 -5 -3 -10 0
-10 7 0 7 6 13 13 13 7 0 11 -4 8 -9 -3 -4 3 -5 12 -1 16 6 15 8 -4 16 -12 6
-22 14 -22 19 0 5 4 7 9 3 10 -5 8 7 -4 51 -4 12 -2 25 3 28 6 3 8 -2 5 -12
-2 -11 3 -25 14 -33 16 -13 17 -12 4 3 -7 10 -11 24 -8 32 3 8 -1 20 -9 26
-11 10 -14 10 -14 0 0 -8 -3 -11 -6 -7 -3 3 3 19 15 36 13 18 17 32 11 36 -6
4 -8 10 -5 15 3 4 -2 11 -11 14 -15 6 -15 4 0 -19 9 -14 12 -25 7 -25 -5 0
-14 13 -21 30 -7 18 -17 27 -24 23 -19 -12 -46 -13 -46 -2 0 5 5 7 10 4 5 -3
10 -1 10 4 0 17 -28 13 -40 -6 -11 -17 -11 -17 -6 0 5 16 -8 25 -17 10 -2 -5
-2 -2 -1 5 2 6 -2 12 -8 12 -6 0 -9 3 -6 6 4 3 15 1 27 -5 14 -8 22 -8 27 1 4
6 3 8 -4 4 -6 -3 -14 3 -17 15 -4 12 -10 17 -14 12 -10 -15 -37 -22 -52 -13
-7 5 -10 12 -6 17 5 4 12 1 17 -7 6 -8 10 -10 10 -5 0 17 -14 30 -35 33 -16 2
-17 1 -5 -7 8 -6 13 -11 10 -12 -3 0 -13 -2 -22 -4 -10 -2 -15 2 -12 9 2 6 -3
12 -13 13 -27 2 -46 7 -63 18 -13 8 -13 7 0 -11 8 -10 22 -25 30 -33 8 -7 3
-6 -12 3 -26 15 -33 14 -29 -7 1 -5 -3 -6 -9 -2 -8 5 -8 11 0 20 9 11 7 14 -9
12 -12 -1 -21 -4 -21 -7 0 -4 -7 -7 -16 -7 -15 0 -14 2 1 13 10 8 22 11 26 8
5 -3 9 -1 9 3 0 5 -16 9 -35 10 -19 1 -35 -3 -35 -9 0 -5 4 -6 10 -3 6 3 7 -1
4 -9 -3 -9 -9 -16 -13 -16 -7 0 -9 7 -13 49 -3 27 -23 16 -24 -14 -1 -15 2
-22 9 -18 6 3 7 1 3 -6 -9 -14 -29 -4 -23 12 2 7 0 20 -4 29 -7 12 -4 18 12
23 11 4 18 9 16 12 -3 2 -14 0 -25 -6 -15 -8 -19 -18 -16 -38 3 -20 2 -24 -5
-13 -5 8 -7 18 -5 22 3 4 -2 8 -10 8 -9 0 -25 9 -36 20 -11 11 -20 16 -20 11
0 -12 -51 -8 -77 7 -13 7 -24 8 -28 2 -3 -5 -12 -7 -20 -3 -11 4 -13 1 -9 -11
6 -15 8 -15 23 -2 14 13 20 14 37 2 10 -7 34 -12 52 -11 18 1 35 -2 38 -6 2
-4 -18 -7 -45 -6 -27 1 -47 5 -44 9 7 12 -32 9 -44 -3 -8 -8 -15 -5 -25 10 -8
12 -18 18 -21 14 -4 -3 -1 -13 6 -22 11 -14 10 -14 -5 -3 -10 8 -16 19 -15 24
1 6 -8 11 -20 13 -15 1 -19 -3 -15 -14 5 -14 4 -14 -14 -1 -10 8 -22 20 -26
25 -4 6 -8 6 -8 1 0 -5 7 -17 16 -27 12 -13 12 -19 3 -25 -7 -4 -10 -3 -5 4 3
6 -2 16 -13 22 -13 6 -18 17 -15 28 4 10 2 13 -3 7 -4 -5 -17 -9 -28 -9 -11 1
-26 2 -33 3 -8 1 -10 6 -6 14 4 6 4 9 -1 5 -4 -4 -15 -2 -24 5 -14 11 -14 10
-2 -5 12 -16 11 -18 -18 -18 -17 0 -33 1 -34 3 -2 1 -12 -5 -22 -13 -15 -13
-19 -12 -35 7 -13 17 -20 19 -30 10 -7 -7 -10 -7 -8 -2 7 12 -17 36 -27 27 -4
-4 -5 0 -3 8 2 8 -2 14 -9 13 -12 -3 -10 27 3 50 6 9 5 9 -7 0 -11 -9 -20 -6
-44 13 -16 14 -22 22 -12 18 13 -5 16 -2 11 10 -3 9 -10 14 -15 11 -4 -3 -6 3
-4 13 2 10 -1 25 -6 33 -8 14 -10 12 -13 -13 0 -6 -8 -13 -16 -15 -9 -3 -11
-1 -5 4 12 9 15 74 4 67 -7 -4 -23 25 -21 38 1 4 -4 5 -11 2 -15 -5 -51 62
-41 78 4 6 -2 6 -15 -1 -23 -13 -28 -22 -8 -18 6 1 11 -4 10 -10 -2 -7 1 -13
5 -13 5 0 14 -11 20 -25 9 -19 9 -24 -1 -22 -6 1 -11 -5 -9 -13 2 -8 0 -11 -4
-7 -12 12 -14 38 -2 31 6 -4 8 -1 6 7 -3 8 -11 13 -17 12 -6 -2 -10 3 -8 10 1
6 -3 11 -10 10 -7 -2 -10 6 -8 17 5 25 -3 26 -22 3 -11 -16 -12 -14 -1 12 6
17 17 36 22 44 9 12 8 13 -4 6 -17 -10 -50 -14 -47 -6 1 3 -6 19 -14 35 -10
18 -19 25 -23 17 -12 -18 -23 -13 -23 12 -1 44 -3 57 -11 57 -4 0 -8 -9 -8
-19 0 -11 5 -17 11 -13 5 3 4 -2 -4 -11 -15 -18 -26 -23 -16 -7 3 6 0 10 -7
10 -10 0 -10 2 -1 8 18 11 -1 36 -22 29 -9 -4 -13 -12 -9 -18 4 -8 3 -9 -5 -5
-6 4 -9 11 -6 16 3 5 1 11 -4 15 -6 3 -7 13 -4 23 6 15 5 16 -12 2 -12 -10
-16 -10 -11 -2 10 16 -13 45 -30 38 -13 -5 -14 11 -1 30 4 7 -2 10 -18 9 -13
-2 -26 3 -29 11 -3 7 -11 12 -18 10 -7 -1 -10 -1 -5 1 4 3 4 10 0 16 -5 8 -2
8 9 0 8 -7 19 -9 23 -5 5 4 5 2 2 -4 -8 -15 20 -27 29 -13 3 6 3 13 0 16 -3 4
-6 0 -6 -8 -1 -10 -4 -9 -11 4 -6 9 -14 15 -20 12 -5 -4 -9 -1 -9 4 0 17 -21
13 -37 -6 -12 -16 -12 -15 -2 9 7 16 17 25 23 21 6 -4 4 2 -4 13 -8 10 -15 20
-16 22 -1 1 -14 -2 -29 -8 -25 -9 -26 -9 -15 5 9 11 9 15 1 15 -7 0 -9 5 -5
12 4 7 3 8 -5 4 -6 -4 -9 -12 -6 -17 3 -5 -1 -6 -10 -3 -11 5 -13 10 -6 17 5
5 8 16 5 23 -14 45 -14 46 -27 36 -7 -6 -27 -10 -45 -10 -20 1 -28 4 -21 9 7
4 21 5 33 3 19 -3 19 -3 3 14 -15 15 -19 15 -27 2 -5 -8 -12 -11 -16 -7 -4 3
-2 12 4 19 7 9 6 17 -5 27 -12 11 -14 10 -11 -4 2 -10 -4 -20 -12 -22 -13 -4
-13 -3 0 6 10 7 11 11 3 11 -7 0 -10 6 -7 14 4 10 -2 14 -20 12 -14 0 -26 -5
-26 -10 0 -5 -3 -7 -6 -4 -3 4 -1 15 5 26 8 15 7 21 -4 26 -8 3 -17 0 -21 -6
-4 -7 -3 -8 4 -4 7 4 12 2 12 -3 0 -16 -16 -13 -30 4 -7 9 -15 13 -18 10 -3
-3 -12 4 -20 16 -12 17 -16 18 -30 7 -15 -12 -16 -11 -3 5 10 12 17 14 26 7 9
-8 14 -7 18 3 6 17 -28 15 -64 -3 -23 -11 -23 -10 -5 4 22 18 30 47 13 43 -7
-1 -11 5 -9 13 3 12 1 13 -9 3 -10 -11 -9 -16 7 -29 17 -14 16 -14 -8 0 -16 9
-28 14 -28 10 0 -4 -6 -1 -14 5 -10 8 -16 9 -19 1 -3 -6 -5 -6 -3 1 1 7 10 13
19 15 10 1 14 -2 11 -8 -4 -7 -2 -8 4 -4 6 4 8 14 5 23 -4 11 -8 13 -11 5 -2
-8 -9 -9 -22 -2 -10 5 -27 7 -37 3 -15 -6 -16 -5 -5 9 11 14 10 17 -9 23 -14
5 -25 2 -30 -6 -5 -8 -9 -9 -9 -4 0 6 5 16 12 23 13 13 14 13 -52 15 -36 2
-40 10 -25 52 l8 20 -17 -20 c-12 -14 -16 -16 -14 -5 2 9 -1 16 -7 17 -5 1 -9
-5 -9 -12 1 -8 -3 -12 -8 -9 -5 3 -7 18 -4 33 3 14 3 20 0 14 -3 -7 -12 -13
-20 -13 -9 0 -13 -4 -10 -8 2 -4 0 -14 -5 -22 -7 -12 -8 -11 -6 5 1 11 6 26
10 33 10 15 2 15 -23 2 -15 -8 -21 -6 -30 11 -10 18 -10 19 7 10 13 -6 24 -6
34 0 12 8 12 10 -1 8 -28 -3 -41 1 -36 10 3 5 -1 14 -9 21 -10 9 -15 9 -15 1
0 -6 5 -11 11 -11 6 0 4 -7 -5 -15 -16 -17 -30 -20 -21 -6 3 5 0 13 -6 17 -6
3 -15 0 -20 -7 -5 -8 -9 -9 -9 -3 0 18 27 37 33 24 3 -6 4 -5 2 2 -1 7 -8 12
-15 10 -7 -2 -16 2 -20 8 -5 8 -9 6 -13 -5 -4 -9 -3 -13 3 -10 6 3 7 -1 4 -10
-4 -9 -7 -15 -8 -13 -1 2 -8 12 -16 22 -13 18 -13 19 0 11 13 -8 13 -6 2 7
-12 15 -42 15 -42 1 0 -3 8 -2 18 2 13 5 14 3 5 -6 -16 -16 -38 -2 -23 16 8 9
8 15 0 20 -6 3 -7 11 -4 17 4 7 2 8 -4 4 -7 -4 -18 -4 -24 1 -19 11 -30 11
-59 -3 -21 -11 -26 -10 -26 1 0 8 3 12 7 10 3 -2 12 0 19 4 9 6 10 11 2 15 -6
4 -11 1 -11 -6 -1 -8 -6 -6 -15 6 -7 10 -18 15 -23 12 -12 -7 -36 20 -28 33 4
5 1 13 -6 17 -7 4 -10 4 -6 -1 4 -4 0 -14 -10 -22 -9 -8 -12 -12 -6 -9 6 3 19
-3 29 -14 10 -11 22 -17 28 -13 6 4 7 1 2 -7 -5 -9 -4 -11 3 -6 8 5 10 1 5
-10 -4 -11 -8 -13 -11 -6 -2 7 -8 10 -13 6 -5 -3 -8 0 -7 8 2 7 -3 12 -10 10
-6 -1 -11 3 -10 10 2 7 -4 12 -12 13 -8 1 -14 6 -12 13 1 7 -3 12 -9 12 -5 0
-7 5 -3 12 4 6 3 8 -4 4 -6 -3 -9 -16 -7 -28 3 -11 1 -17 -3 -14 -7 7 -8 11
-11 37 0 5 -6 7 -11 4 -6 -4 -7 -11 -4 -17 4 -7 2 -8 -5 -4 -6 4 -9 11 -6 16
3 4 -5 10 -16 13 -14 4 -18 10 -13 19 6 10 4 10 -9 -1 -18 -14 -15 -26 5 -26
6 0 13 -7 15 -15 3 -10 2 -11 -4 -4 -4 6 -15 10 -25 9 -13 -2 -15 3 -13 27 3
23 1 27 -8 19 -14 -11 -33 -10 -62 6 -11 5 -26 8 -32 6 -7 -3 -13 0 -13 6 0 5
9 8 20 6 11 -2 20 1 20 7 0 5 -6 8 -14 5 -7 -3 -19 0 -26 6 -10 9 -11 9 -5 -2
5 -9 3 -12 -6 -9 -8 3 -13 10 -12 16 2 7 -4 9 -14 5 -12 -5 -14 -3 -8 7 5 8 4
11 -3 6 -6 -3 -15 2 -21 11 -6 11 -11 13 -11 5 0 -7 -4 -11 -9 -7 -5 3 -12 1
-16 -4 -3 -6 3 -8 15 -6 11 2 25 -4 33 -16 8 -10 17 -16 22 -11 5 4 5 1 0 -7
-7 -12 -10 -11 -21 4 -7 10 -25 18 -39 18 -29 0 -29 1 -14 30 l12 22 -23 -20
-23 -20 8 25 7 25 -17 -23 c-15 -21 -42 -22 -29 -1 3 5 10 6 16 3 6 -4 6 2 -1
15 -13 24 -26 29 -17 6 3 -8 1 -16 -4 -16 -6 -1 -16 -2 -22 -3 -7 -1 -16 3
-20 9 -5 6 -11 5 -17 -3 -7 -11 -9 -11 -14 1 -4 11 1 14 19 12 13 -1 27 2 31
8 3 6 1 7 -5 3 -7 -4 -12 -2 -12 5 0 8 -4 8 -15 -1 -14 -12 -19 -7 -16 13 1 5
-3 6 -9 2 -6 -3 -8 -11 -5 -16 4 -5 2 -9 -4 -9 -5 0 -14 7 -19 16 -8 15 -10
15 -15 0 -4 -10 -3 -15 3 -11 6 3 10 2 10 -3 0 -6 -8 -13 -17 -16 -10 -4 -14
-4 -10 0 4 4 1 14 -6 22 -9 13 -9 14 0 8 9 -5 11 -2 7 8 -3 9 -10 16 -15 16
-5 0 -11 0 -14 0 -3 0 -4 -3 -2 -7 1 -5 4 -7 7 -6 3 1 6 -7 6 -17 0 -18 -19
-21 -33 -5 -4 4 -2 5 5 1 15 -9 16 10 0 20 -6 4 -14 2 -16 -4 -5 -17 -19 -15
-19 3 0 8 4 12 8 10 9 -6 34 24 25 32 -3 3 -6 2 -6 -4 0 -6 -17 -13 -38 -15
-35 -3 -39 -1 -36 20 2 18 0 21 -11 12 -8 -6 -11 -18 -8 -26 3 -8 0 -14 -7
-14 -6 0 -8 5 -5 10 3 6 1 10 -4 10 -6 0 -11 -5 -11 -11 0 -6 -7 -3 -16 6 -14
13 -19 14 -25 3 -7 -10 -9 -10 -9 0 0 6 -4 12 -10 12 -5 0 -7 -8 -3 -17 3 -12
0 -10 -11 5 -10 12 -22 19 -28 16 -7 -4 -6 -9 2 -14 8 -5 3 -7 -14 -7 -20 2
-23 4 -13 12 8 6 14 13 15 18 0 4 2 11 5 15 2 4 2 0 0 -8 -2 -8 -1 -11 3 -7 4
4 14 1 23 -6 8 -6 5 3 -8 21 -12 17 -25 32 -27 32 -3 0 -3 -3 0 -8 2 -4 -2
-15 -9 -26 -11 -14 -17 -16 -32 -6 -17 11 -17 11 0 6 10 -3 16 -2 12 3 -3 5 1
11 7 14 7 2 9 8 5 13 -4 5 -12 2 -17 -6 -8 -13 -13 -13 -32 -1 -18 10 -20 10
-10 0 6 -7 12 -18 12 -23 0 -6 -7 0 -16 12 -8 12 -12 28 -8 35 5 8 2 8 -9 -2
-13 -11 -17 -11 -17 -1 0 8 -3 10 -7 7 -3 -4 2 -17 13 -28 l19 -22 -27 18
c-22 13 -28 14 -28 4 0 -12 -2 -12 -9 0 -6 9 -11 10 -15 2 -4 -6 -12 -11 -19
-11 -6 0 -2 6 8 14 11 8 23 12 27 10 4 -2 10 1 14 7 4 7 3 9 -4 5 -5 -3 -13 0
-15 6 -4 10 -6 10 -6 0 -1 -7 -5 -10 -11 -7 -5 3 -10 1 -10 -4 0 -6 -7 -11
-15 -11 -8 0 -15 5 -15 11 0 5 4 7 10 4 6 -4 7 1 3 11 -6 16 -8 15 -16 -4 -13
-29 -30 -28 -22 1 6 21 5 21 -9 4 -8 -11 -12 -26 -9 -35 4 -10 2 -14 -2 -9 -5
4 -9 17 -10 29 -2 32 -22 33 -32 1 l-10 -28 -6 26 c-4 15 -16 29 -27 32 -11 3
-18 1 -14 -4 3 -5 2 -10 -3 -10 -35 -6 -52 -5 -47 2 3 5 -2 9 -10 9 -9 0 -13
-6 -10 -14 3 -8 1 -17 -4 -20 -5 -3 -9 0 -8 7 0 6 -3 13 -9 15 -5 1 -10 -2
-10 -7 0 -5 -3 -13 -7 -17 -4 -3 -5 3 -3 16 3 16 0 20 -10 16 -8 -3 -17 0 -21
6 -4 7 -10 6 -16 -3 -8 -12 -9 -12 -6 0 2 8 12 15 21 17 10 1 14 -2 11 -8 -4
-7 -2 -8 5 -4 6 4 8 12 5 18 -4 6 -1 8 7 6 8 -3 13 -10 12 -15 -1 -5 5 -10 13
-10 8 0 14 5 14 10 0 5 12 2 26 -8 14 -9 28 -14 32 -11 3 3 -1 6 -9 6 -12 0
-11 2 1 10 12 7 11 9 -5 9 -42 1 -60 4 -70 12 -6 4 -20 6 -30 5 -11 -2 -27 2
-35 8 -13 10 -13 9 -1 -6 16 -21 11 -22 -23 -7 -14 7 -22 17 -19 23 4 6 0 6
-9 -1 -8 -7 -19 -9 -23 -5 -5 4 -5 1 -1 -5 10 -18 -10 -16 -28 3 -17 17 -19
14 -10 -10 3 -9 10 -14 14 -11 4 3 14 -3 21 -13 13 -15 12 -16 -3 -3 -10 7
-18 10 -18 5 0 -4 -5 -3 -11 3 -6 6 -18 9 -25 6 -8 -3 -14 0 -14 7 0 6 4 9 8
6 5 -3 9 1 9 9 0 11 -4 12 -13 4 -14 -12 -46 -9 -56 6 -5 6 -8 5 -8 -3 0 -7
-4 -11 -9 -7 -5 3 -12 1 -16 -5 -4 -6 -10 -8 -15 -5 -5 3 -11 1 -15 -5 -3 -5
-11 -10 -18 -10 -6 0 -2 6 8 14 11 8 24 12 30 9 5 -3 5 0 -2 7 -10 11 -15 11
-28 0 -14 -12 -18 -11 -26 1 -7 12 -9 11 -9 -3 0 -9 -5 -20 -12 -24 -7 -4 -8
-3 -4 4 4 7 1 12 -9 12 -9 0 -14 -4 -10 -9 3 -6 -4 -8 -15 -5 -11 2 -29 6 -40
8 -11 3 -22 1 -25 -5 -4 -5 -12 -9 -18 -9 -7 0 -4 5 6 11 9 5 17 15 17 21 0 6
-6 5 -16 -3 -13 -10 -17 -10 -25 2 -7 12 -9 11 -9 -3 0 -9 -5 -20 -12 -24 -7
-4 -8 -3 -4 4 4 7 1 12 -9 12 -9 0 -14 -4 -10 -9 3 -6 -4 -8 -15 -5 -11 2 -29
6 -40 8 -11 3 -22 1 -25 -5 -4 -5 -12 -9 -18 -9 -7 0 -4 5 6 11 9 5 17 15 17
21 0 6 -6 5 -16 -3 -13 -10 -17 -10 -25 2 -7 12 -9 11 -9 -3 0 -9 -5 -20 -12
-24 -7 -4 -8 -3 -4 4 4 7 1 12 -8 12 -9 0 -16 6 -17 13 -1 6 -5 1 -9 -13 l-8
-25 -1 25 c-1 19 -3 22 -10 10 -6 -8 -7 -18 -4 -24 4 -5 1 -6 -8 -1 -20 13
-49 13 -49 1 0 -7 -3 -8 -8 -1 -9 13 -52 13 -71 1 -10 -6 -12 -6 -7 2 10 16
-7 15 -23 0 -11 -10 -13 -10 -7 0 4 6 2 12 -4 12 -6 0 -8 5 -4 12 4 7 3 8 -5
4 -6 -4 -9 -11 -6 -16 3 -5 1 -12 -5 -15 -6 -4 -10 -3 -9 2 4 24 -4 34 -11 13
l-8 -25 -1 25 c-1 19 -3 22 -10 10 -6 -8 -7 -19 -4 -25 3 -5 0 -5 -7 2 -9 9
-19 9 -33 2 -15 -9 -18 -8 -12 1 5 8 3 11 -6 8 -8 -3 -22 -1 -31 4 -11 5 -18
5 -18 -1 0 -5 6 -11 13 -14 6 -3 2 -4 -11 -4 -13 1 -21 6 -18 13 2 6 -3 11
-12 10 -9 0 -16 5 -14 12 3 16 2 15 -30 -12z m31 -10 c9 -11 9 -16 0 -22 -8
-4 -9 -3 -5 4 4 7 1 12 -8 12 -10 0 -13 -6 -10 -17 5 -15 4 -15 -4 -3 -8 10
-8 18 0 27 13 16 13 16 27 -1z m885 -8 c-3 -4 -9 -8 -15 -8 -5 0 -9 4 -9 8 0
5 7 9 15 9 8 0 12 -4 9 -9z m186 -12 c0 -2 -37 0 -48 3 -2 1 0 6 3 11 5 9 45
-3 45 -14z m-1287 -16 c3 -11 0 -18 -7 -17 -6 1 -10 -4 -8 -11 1 -8 -2 -11 -7
-7 -6 3 -7 13 -4 23 6 15 5 15 -10 3 -9 -7 -14 -18 -10 -25 4 -6 0 -5 -9 2
-14 11 -21 10 -45 -4 l-28 -18 25 25 c14 14 28 24 32 22 4 -2 9 1 13 6 3 5 14
8 25 6 11 -2 20 0 20 6 0 16 7 10 13 -11z m47 5 c0 -2 -9 -3 -19 -2 -11 0 -18
5 -15 9 4 6 34 0 34 -7z m104 -11 c3 -8 2 -12 -4 -9 -6 3 -10 10 -10 16 0 14
7 11 14 -7z m1126 -4 c0 -5 -2 -10 -4 -10 -3 0 -8 5 -11 10 -3 6 -1 10 4 10 6
0 11 -4 11 -10z m-1247 -20 c3 -11 1 -18 -4 -14 -5 3 -9 12 -9 20 0 20 7 17
13 -6z m1471 12 c2 -4 0 -14 -6 -22 -8 -12 -9 -12 -4 3 3 9 3 17 -1 17 -3 0
-12 -8 -20 -17 -13 -16 -13 -16 -3 5 11 22 25 28 34 14z m49 -7 c-3 -9 -8 -14
-10 -11 -3 3 -2 9 2 15 9 16 15 13 8 -4z m-1733 -5 c0 -5 -5 -10 -11 -10 -5 0
-7 5 -4 10 3 6 8 10 11 10 2 0 4 -4 4 -10z m-376 -66 c9 -3 16 -11 16 -16 0
-6 -6 -6 -14 1 -9 7 -17 8 -20 2 -3 -5 0 -12 6 -14 9 -4 10 -6 1 -6 -15 -1
-26 16 -18 29 7 12 8 12 29 4z m122 -16 c4 -7 3 -8 -5 -4 -6 4 -20 2 -29 -6
-15 -12 -16 -11 -3 5 16 20 27 22 37 5z m-193 -7 c4 -1 7 -5 7 -10 0 -6 -8 -8
-18 -6 -10 2 -25 0 -32 -5 -16 -10 -40 -2 -40 12 0 7 5 6 14 -1 10 -9 15 -8
19 3 3 8 14 13 24 11 10 -2 21 -4 26 -4z m-137 -53 c4 -7 3 -8 -4 -4 -8 4 -12
0 -12 -11 0 -15 -2 -16 -10 -3 -8 12 -10 12 -10 1 0 -8 -3 -11 -7 -7 -5 4 1
14 11 22 24 17 23 17 32 2z m84 2 c0 -5 -5 -10 -11 -10 -5 0 -7 5 -4 10 3 6 8
10 11 10 2 0 4 -4 4 -10z m-43 -13 c0 -8 -6 -14 -14 -14 -17 0 -17 14 0 20 6
3 12 6 13 6 0 1 1 -5 1 -12z m2903 -5 c0 -5 -7 -9 -15 -9 -8 0 -12 4 -9 9 3 4
9 8 15 8 5 0 9 -4 9 -8z m-3105 -42 c3 -5 1 -10 -4 -10 -6 0 -11 5 -11 10 0 6
2 10 4 10 3 0 8 -4 11 -10z m-81 -15 c-4 -8 -12 -15 -20 -15 -8 0 -14 -5 -14
-12 0 -6 -3 -8 -7 -4 -4 4 3 16 17 26 30 24 31 24 24 5z m3371 -23 c-3 -3 -11
0 -18 7 -9 10 -8 11 6 5 10 -3 15 -9 12 -12z m-3450 -2 c4 -6 1 -9 -7 -8 -7 2
-12 -3 -10 -9 1 -7 -2 -13 -8 -13 -14 0 -13 13 2 28 15 15 15 15 23 2z m115 4
c0 -8 -19 -13 -24 -6 -3 5 1 9 9 9 8 0 15 -2 15 -3z m3488 -69 c-3 -3 -9 2
-12 12 -6 14 -5 15 5 6 7 -7 10 -15 7 -18z m-3838 -70 c0 -7 -30 -13 -34 -7
-3 4 4 9 15 9 10 1 19 0 19 -2z m4034 -11 c3 -8 2 -12 -4 -9 -6 3 -10 10 -10
16 0 14 7 11 14 -7z m145 -13 c22 -12 23 -14 7 -23 -10 -5 -20 -7 -23 -4 -4 3
-1 6 6 6 7 0 10 4 6 10 -3 5 -12 7 -20 3 -8 -3 -15 0 -15 7 0 9 -4 9 -17 -1
-16 -13 -17 -12 -5 3 14 18 26 18 61 -1z m-4439 -71 c0 -5 -9 -7 -21 -5 -15 3
-19 0 -15 -10 3 -9 0 -12 -10 -8 -7 3 -14 -1 -14 -8 0 -7 -3 -9 -7 -6 -10 11
24 43 47 44 11 1 20 -2 20 -7z m42 -4 c7 4 8 2 4 -5 -9 -13 -26 -5 -25 12 0 9
2 8 6 -1 2 -6 10 -9 15 -6z m4551 -51 c4 -8 3 -16 -1 -19 -4 -3 -9 4 -9 15 -2
23 3 25 10 4z m-4706 -37 c-3 -8 -6 -5 -6 6 -1 11 2 17 5 13 3 -3 4 -12 1 -19z
m-100 -15 c-4 -3 -1 -13 6 -22 11 -14 10 -15 -7 -1 -18 14 -19 13 -13 -2 4
-13 2 -15 -10 -11 -8 3 -19 0 -24 -8 -7 -12 -10 -12 -21 0 -7 8 -8 11 -2 8 5
-3 23 5 40 18 27 22 46 34 31 18z m-134 -107 c4 -10 0 -12 -15 -8 -15 4 -17 7
-6 13 17 11 15 11 21 -5z m-131 -76 c4 -3 -1 -11 -11 -17 -16 -10 -18 -8 -16
10 3 30 4 32 13 21 4 -5 10 -11 14 -14z m-52 -40 c-13 -8 -13 -10 2 -10 9 0
19 -4 22 -9 4 -5 -10 -4 -29 1 -38 12 -39 23 -3 25 18 2 19 0 8 -7z m5570 -20
c0 -5 -5 -10 -11 -10 -5 0 -7 5 -4 10 3 6 8 10 11 10 2 0 4 -4 4 -10z m-5636
-26 c3 -8 2 -12 -4 -9 -6 3 -10 10 -10 16 0 14 7 11 14 -7z m5720 1 c-7 -16
-24 -21 -24 -6 0 8 7 13 27 20 1 1 0 -6 -3 -14z m-5679 -15 c3 -6 -1 -7 -9 -4
-18 7 -21 14 -7 14 6 0 13 -4 16 -10z m5802 -60 c-3 -11 0 -20 6 -20 6 0 7 -3
4 -6 -4 -4 -13 -1 -22 6 -12 10 -13 16 -4 26 16 20 22 17 16 -6z m-5954 -11
c-8 -8 -13 -7 -18 2 -5 8 -4 10 3 5 7 -4 12 -2 12 5 0 7 3 9 7 6 4 -4 2 -12
-4 -18z m-79 -64 c-4 -8 -11 -15 -18 -15 -15 0 -38 -38 -31 -50 4 -6 -1 -7
-11 -3 -12 4 -15 3 -10 -5 5 -8 2 -10 -9 -6 -11 5 -14 2 -9 -12 5 -15 4 -16
-4 -4 -8 11 0 25 39 62 54 52 62 56 53 33z m61 6 c3 -5 2 -12 -3 -15 -5 -3 -9
1 -9 9 0 17 3 19 12 6z m6060 -11 c3 -6 -4 -10 -17 -10 -18 0 -20 2 -8 10 19
12 18 12 25 0z m-6141 -56 c3 -8 2 -12 -4 -9 -6 3 -10 10 -10 16 0 14 7 11 14
-7z m-154 -160 c0 -8 -19 -13 -24 -6 -3 5 1 9 9 9 8 0 15 -2 15 -3z m6570 -89
c0 -5 -5 -3 -10 5 -5 8 -10 20 -10 25 0 6 5 3 10 -5 5 -8 10 -19 10 -25z m35
-25 c-3 -5 -12 -10 -18 -10 -7 0 -6 4 3 10 19 12 23 12 15 0z m-6762 -14 c4
-11 1 -13 -10 -9 -13 5 -14 3 -4 -18 11 -22 11 -23 -3 -6 -8 11 -12 25 -9 33
7 18 19 18 26 0z m6892 -125 c10 -20 11 -32 5 -36 -6 -4 -10 -3 -9 2 3 20 -2
32 -13 29 -7 -1 -10 -1 -5 1 15 9 6 22 -10 17 -15 -5 -16 -4 -3 5 20 14 17 15
35 -18z m-7025 -51 c-8 -5 -19 -10 -25 -10 -5 0 -3 5 5 10 8 5 20 10 25 10 6
0 3 -5 -5 -10z m7105 -100 c3 -5 1 -10 -4 -10 -6 0 -11 5 -11 10 0 6 2 10 4
10 3 0 8 -4 11 -10z m-7181 -26 c3 -8 2 -12 -4 -9 -6 3 -10 10 -10 16 0 14 7
11 14 -7z m-152 -77 c3 -13 0 -24 -6 -24 -6 0 -11 11 -11 24 0 13 3 23 6 23 4
0 9 -10 11 -23z m7589 -1 c5 3 9 0 9 -7 0 -10 3 -10 12 -1 16 16 31 15 26 0
-3 -7 -18 -13 -35 -13 -18 0 -29 3 -27 7 3 4 0 8 -6 8 -6 0 -8 5 -4 12 6 9 9
9 12 0 2 -7 8 -10 13 -6z m-42 -10 c9 -11 9 -16 0 -22 -7 -4 -9 -3 -5 4 3 6
-2 15 -11 21 -10 6 -13 11 -7 11 6 0 17 -6 23 -14z m-49 -6 c0 -5 -5 -10 -11
-10 -5 0 -7 5 -4 10 3 6 8 10 11 10 2 0 4 -4 4 -10z m240 -10 c-6 -11 -13 -20
-16 -20 -2 0 0 9 6 20 6 11 13 20 16 20 2 0 0 -9 -6 -20z m-7960 1 c0 -6 -4
-12 -8 -15 -5 -3 -9 1 -9 9 0 8 4 15 9 15 4 0 8 -4 8 -9z m7880 -5 c0 -2 -7
-7 -16 -10 -8 -3 -12 -2 -9 4 6 10 25 14 25 6z m-8044 -18 c4 -6 3 -8 -4 -4
-5 3 -12 0 -15 -6 -2 -7 -8 -9 -13 -5 -5 4 -2 12 6 17 19 12 17 12 26 -2z
m8364 -24 c0 -8 -4 -14 -10 -14 -5 0 -7 6 -4 14 4 11 -1 13 -18 10 -21 -4 -21
-3 -3 5 23 10 35 5 35 -15z m-8522 -29 c-3 -3 -9 2 -12 12 -6 14 -5 15 5 6 7
-7 10 -15 7 -18z m8482 5 c0 -5 -5 -10 -11 -10 -5 0 -7 5 -4 10 3 6 8 10 11
10 2 0 4 -4 4 -10z m375 -68 c-3 -3 -11 0 -18 7 -9 10 -8 11 6 5 10 -3 15 -9
12 -12z m143 -187 c-3 -3 -9 2 -12 12 -6 14 -5 15 5 6 7 -7 10 -15 7 -18z m-3
-262 c-18 -17 -18 -17 -6 0 11 14 11 20 0 35 -12 16 -12 16 6 0 19 -18 19 -18
0 -35z m-10 -142 c3 -5 2 -12 -3 -15 -5 -3 -9 1 -9 9 0 17 3 19 12 6z m-55 -5
c0 -2 -7 -7 -16 -10 -8 -3 -12 -2 -9 4 6 10 25 14 25 6z m-36 -22 c3 -8 2 -12
-4 -9 -6 3 -10 10 -10 16 0 14 7 11 14 -7z m-26 -20 c-1 -5 -9 -9 -16 -10 -10
-2 -11 1 -1 12 12 14 24 13 17 -2z m-311 -316 c4 -28 -6 -18 -12 12 -2 12 -1
20 2 16 4 -4 8 -16 10 -28z m-8503 -3 c3 -8 1 -15 -4 -15 -6 0 -10 7 -10 15 0
8 2 15 4 15 2 0 6 -7 10 -15z m-44 -250 c14 -19 14 -19 -2 -6 -10 7 -18 18
-18 24 0 6 1 8 3 6 1 -2 9 -13 17 -24z m-6 -47 c-9 -14 -23 2 -17 18 4 12 8
13 14 3 4 -7 5 -17 3 -21z m8582 -16 c1 -7 0 -8 -3 -2 -2 5 -9 8 -14 4 -5 -3
-9 0 -9 6 0 15 23 7 26 -8z m-8590 -24 c-14 -8 -15 -13 -5 -24 10 -12 9 -13
-4 -8 -14 5 -17 25 -8 51 1 1 8 0 17 -4 15 -5 15 -7 0 -15z m-5 -55 c13 -17
13 -17 -6 -3 -11 8 -22 16 -24 17 -2 2 0 3 6 3 6 0 17 -8 24 -17z m8621 8 c-7
-4 -12 -14 -10 -21 2 -7 -4 -15 -12 -17 -13 -4 -13 -3 0 6 14 10 8 15 -15 12
-5 -1 -1 6 9 14 11 8 25 15 30 15 6 0 5 -4 -2 -9z m8 -51 c0 -5 -5 -10 -11
-10 -5 0 -7 5 -4 10 3 6 8 10 11 10 2 0 4 -4 4 -10z m-8643 -85 c0 -8 -4 -12
-9 -9 -4 3 -8 9 -8 15 0 5 4 9 8 9 5 0 9 -7 9 -15z m8657 -9 c-3 -9 -12 -12
-22 -9 -15 6 -9 11 25 22 1 1 0 -5 -3 -13z m-8702 -193 c-10 -4 -10 -8 -1 -19
10 -12 9 -13 -5 -8 -24 9 -18 35 8 33 6 0 5 -3 -2 -6z m-8 -72 c3 -5 -1 -11
-9 -14 -9 -4 -12 -1 -8 9 6 16 10 17 17 5z m11 -31 c-3 -5 -12 -10 -18 -10 -7
0 -6 4 3 10 19 12 23 12 15 0z m8708 -55 c-3 -9 -8 -14 -10 -11 -3 3 -2 9 2
15 9 16 15 13 8 -4z m-8713 -19 c0 -2 -7 -7 -16 -10 -8 -3 -12 -2 -9 4 6 10
25 14 25 6z m8710 -36 c0 -5 -2 -10 -4 -10 -3 0 -8 5 -11 10 -3 6 -1 10 4 10
6 0 11 -4 11 -10z m-8705 -119 c3 -5 2 -12 -3 -15 -5 -3 -9 1 -9 9 0 17 3 19
12 6z m-35 -41 c-12 -22 -21 -26 -17 -7 2 10 17 26 25 27 1 0 -2 -9 -8 -20z
m8796 -37 c-7 -7 -21 -4 -21 5 0 4 -4 14 -9 22 -6 9 -1 7 12 -4 12 -11 20 -21
18 -23z m-8756 12 c0 -2 -9 -3 -19 -2 -11 0 -18 5 -15 9 4 6 34 0 34 -7z
m8738 -76 c-3 -8 -7 -3 -11 10 -4 17 -3 21 5 13 5 -5 8 -16 6 -23z m-8787 -7
c-6 -2 -8 -8 -5 -13 3 -6 11 -5 20 2 8 7 14 7 14 1 0 -5 -7 -13 -16 -16 -8 -3
-12 -11 -8 -17 4 -8 3 -9 -4 -5 -7 4 -12 2 -12 -3 0 -6 5 -11 12 -11 6 0 8 -3
5 -7 -4 -3 -16 2 -27 12 -16 14 -17 20 -8 26 7 5 13 12 14 16 0 4 5 17 9 27 6
15 10 16 13 6 3 -8 0 -16 -7 -18z m8766 -79 c1 -22 -1 -24 -8 -10 -6 9 -7 22
-4 27 9 14 10 13 12 -17z m20 -5 c-3 -8 -6 -5 -6 6 -1 11 2 17 5 13 3 -3 4
-12 1 -19z m-8752 -28 c3 -6 -1 -7 -9 -4 -18 7 -21 14 -7 14 6 0 13 -4 16 -10z
m8771 -80 c0 -12 -4 -16 -9 -11 -5 5 -6 14 -3 20 10 15 12 14 12 -9z m4 -41
c0 -3 -7 -6 -15 -6 -8 0 -13 3 -10 5 3 3 -1 12 -8 20 -11 13 -9 14 11 1 12 -8
22 -16 22 -20z m-10 -59 c-18 -12 -30 -13 -30 -2 0 4 10 9 22 9 18 2 20 0 8
-7z m-8766 -22 c-3 -4 -9 -8 -15 -8 -5 0 -9 4 -9 8 0 5 7 9 15 9 8 0 12 -4 9
-9z m-11 -65 c-7 -3 -13 -11 -13 -19 0 -8 -5 -14 -11 -14 -6 0 -4 -7 5 -15 8
-9 13 -22 9 -30 -3 -9 5 -24 18 -35 l24 -20 -31 17 c-20 11 -30 23 -29 37 1
12 -1 26 -4 31 -4 6 -7 15 -7 22 1 14 39 44 46 36 3 -3 -1 -8 -7 -10z m8718
-136 c-10 -9 -11 -8 -5 6 3 10 9 15 12 12 3 -3 0 -11 -7 -18z m-8700 -54 c12
-16 12 -17 -2 -6 -9 7 -20 9 -24 5 -5 -4 -5 -1 -1 6 9 16 11 15 27 -5z m8733
-65 c-5 -7 -11 -6 -19 5 -7 9 -16 13 -20 9 -5 -4 -5 -1 -1 6 5 9 12 9 27 2 11
-6 16 -16 13 -22z m-8730 -6 c2 -4 -5 -9 -17 -9 -17 -2 -19 0 -7 7 18 12 18
12 24 2z m1 -32 c3 -5 1 -10 -4 -10 -6 0 -11 5 -11 10 0 6 2 10 4 10 3 0 8 -4
11 -10z m0 -38 c-3 -3 -11 0 -18 7 -9 10 -8 11 6 5 10 -3 15 -9 12 -12z m8710
-42 c-3 -5 -12 -10 -18 -10 -7 0 -6 4 3 10 19 12 23 12 15 0z m-9 -62 c5 -7 3
-8 -6 -3 -10 6 -12 4 -7 -8 3 -9 2 -19 -2 -21 -6 -4 -8 30 -2 42 3 5 10 1 17
-10z m-8696 -78 c0 -5 -5 -10 -11 -10 -5 0 -7 5 -4 10 3 6 8 10 11 10 2 0 4
-4 4 -10z m35 -60 c1 -11 -2 -20 -7 -20 -4 0 -7 11 -6 25 3 28 11 24 13 -5z
m8645 -41 c0 -5 -5 -9 -12 -9 -6 0 -8 3 -5 7 4 3 1 13 -6 22 -11 14 -10 14 6
2 9 -7 17 -17 17 -22z m-8633 -11 c2 -17 0 -19 -7 -8 -5 8 -6 18 -4 22 8 12
10 10 11 -14z m15 -65 c-6 -3 -10 -9 -7 -14 4 -5 -1 -6 -9 -3 -23 9 -19 20 7
21 12 0 16 -1 9 -4z m8588 -37 c0 -10 -30 0 -34 11 -4 11 -1 11 14 3 11 -6 20
-12 20 -14z m-35 -126 c-3 -5 -12 -10 -18 -10 -7 0 -6 4 3 10 19 12 23 12 15
0z m-5 -40 c0 -5 -5 -10 -11 -10 -5 0 -7 5 -4 10 3 6 8 10 11 10 2 0 4 -4 4
-10z m-5 -64 c-2 -25 -20 -32 -29 -11 -4 11 -2 14 6 9 7 -5 9 -2 6 8 -4 8 -1
15 6 15 7 0 12 -9 11 -21z m-8475 -36 c0 -5 -2 -10 -4 -10 -3 0 -8 5 -11 10
-3 6 -1 10 4 10 6 0 11 -4 11 -10z m44 -175 c-4 -8 -11 -15 -16 -15 -6 0 -5 6
2 15 7 8 14 15 16 15 2 0 1 -7 -2 -15z m8326 -25 c0 -5 -5 -10 -11 -10 -5 0
-7 5 -4 10 3 6 8 10 11 10 2 0 4 -4 4 -10z m-4 -92 c5 4 2 -2 -7 -13 -9 -11
-14 -25 -12 -32 2 -7 -4 -11 -16 -10 -17 1 -18 3 -7 17 7 8 12 23 11 33 -3 14
0 15 9 8 7 -6 17 -7 22 -3z m-8278 -44 c0 -33 -22 -25 -23 8 -1 17 3 24 10 21
7 -2 13 -15 13 -29z m8177 -184 c3 -5 1 -10 -4 -10 -6 0 -11 5 -11 10 0 6 2
10 4 10 3 0 8 -4 11 -10z m-8070 -100 c-3 -5 -2 -10 4 -10 5 0 12 6 15 13 2 6
3 1 1 -13 -2 -14 -4 -29 -4 -33 -1 -4 -7 -2 -15 5 -7 7 -12 20 -11 28 5 21 4
20 11 20 3 0 2 -4 -1 -10z m50 -100 c-3 -5 2 -16 11 -24 12 -12 12 -16 2 -17
-10 0 -10 -2 0 -6 6 -2 12 -10 12 -16 0 -14 -23 8 -26 25 -2 7 -5 23 -8 36 -3
13 -1 20 5 17 5 -4 7 -10 4 -15z m65 -40 c0 -5 -8 -10 -17 -10 -15 0 -16 2 -3
10 19 12 20 12 20 0z m7834 -21 c3 -3 -5 -5 -19 -5 -13 0 -22 3 -19 7 4 8 30
6 38 -2z m-7835 -40 c-15 -9 -32 -2 -24 11 3 5 13 6 21 3 12 -4 13 -8 3 -14z
m7721 -113 c0 -3 -4 -8 -10 -11 -5 -3 -10 -1 -10 4 0 6 5 11 10 11 6 0 10 -2
10 -4z m-77 -153 c-5 -12 -3 -14 8 -8 12 8 12 6 1 -8 -8 -9 -11 -20 -8 -25 3
-6 -1 -15 -8 -21 -10 -9 -16 -9 -21 -1 -4 6 -4 14 -1 17 3 4 6 1 6 -6 0 -7 5
-9 10 -6 8 5 7 11 -1 21 -9 11 -9 14 1 14 10 0 10 3 1 14 -11 13 -10 16 16 25
1 1 -1 -6 -4 -16z m-7433 -49 c0 -8 -19 -13 -24 -6 -3 5 1 9 9 9 8 0 15 -2 15
-3z m7365 -13 c3 -5 2 -12 -3 -15 -5 -3 -9 1 -9 9 0 17 3 19 12 6z m-7395 -12
c0 -5 5 -7 10 -4 6 3 10 -1 10 -9 0 -21 -3 -20 -25 4 -10 11 -13 20 -7 20 7 0
12 -5 12 -11z m51 -26 c13 -16 12 -17 -3 -4 -10 7 -18 15 -18 17 0 8 8 3 21
-13z m7332 -20 c-5 -12 -3 -14 8 -8 12 7 12 6 -1 -11 -8 -10 -15 -21 -17 -23
-2 -3 3 51 6 57 0 1 3 2 6 2 2 0 1 -7 -2 -17z m-7246 -140 c-11 -10 -26 8 -20
23 5 15 7 14 15 -1 6 -9 7 -19 5 -22z m7178 19 c-6 -4 -11 -15 -10 -24 0 -20
-3 -22 -27 -13 -16 6 -16 9 5 26 12 10 27 18 32 19 6 0 6 -3 0 -8z m-7095
-112 c0 -5 -2 -10 -4 -10 -3 0 -8 5 -11 10 -3 6 -1 10 4 10 6 0 11 -4 11 -10z
m37 -32 c-3 -8 -6 -5 -6 6 -1 11 2 17 5 13 3 -3 4 -12 1 -19z m160 -153 c0 -8
-4 -12 -9 -9 -5 3 -6 10 -3 15 9 13 12 11 12 -6z m6609 -33 c-18 -16 -18 -16
-8 4 6 12 10 24 8 26 -1 3 2 2 8 -3 7 -6 4 -15 -8 -27z m-30 2 c1 -9 0 -13 -4
-10 -3 4 -7 14 -8 22 -1 9 0 13 4 10 3 -4 7 -14 8 -22z m-6462 -103 c3 -5 -1
-11 -9 -14 -9 -4 -12 -1 -8 9 6 16 10 17 17 5z m6323 -46 c0 -8 -4 -12 -9 -9
-5 3 -6 10 -3 15 9 13 12 11 12 -6z m-6220 -57 c1 -25 -1 -28 -9 -15 -5 10
-15 14 -21 10 -7 -3 -3 3 7 15 11 12 20 22 20 22 1 0 2 -14 3 -32z m97 -56 c3
-5 -1 -9 -9 -9 -8 0 -12 4 -9 9 3 4 7 8 9 8 2 0 6 -4 9 -8z m6000 -17 c-4 -8
-8 -15 -10 -15 -2 0 -4 7 -4 15 0 8 4 15 10 15 5 0 7 -7 4 -15z m-6002 -12
c-6 -2 -9 -10 -6 -15 4 -7 2 -8 -5 -4 -13 9 -5 26 12 25 9 0 8 -2 -1 -6z m108
-83 c-9 -16 -8 -20 5 -20 8 0 15 -4 15 -8 0 -16 -27 -9 -39 11 -7 10 -8 16 -3
13 6 -3 12 1 16 9 3 8 8 15 11 15 3 0 1 -9 -5 -20z m40 -10 c0 -5 -2 -10 -4
-10 -3 0 -8 5 -11 10 -3 6 -1 10 4 10 6 0 11 -4 11 -10z m181 -177 c-12 -20
-14 -14 -5 12 4 9 9 14 11 11 3 -2 0 -13 -6 -23z m113 -38 c-7 -16 -24 -21
-24 -6 0 8 7 13 27 20 1 1 0 -6 -3 -14z m4898 -137 c-6 -6 -12 -6 -17 3 -5 8
-4 10 3 5 7 -4 12 0 13 11 0 12 2 13 6 5 3 -8 1 -18 -5 -24z m-4732 12 c0 -5
-2 -10 -4 -10 -3 0 -8 5 -11 10 -3 6 -1 10 4 10 6 0 11 -4 11 -10z m69 -4 c9
-11 9 -16 -1 -22 -7 -4 -10 -4 -6 1 4 4 3 14 -3 22 -6 7 -9 13 -6 13 2 0 10
-6 16 -14z m44 -31 c-3 -9 -8 -14 -10 -11 -3 3 -2 9 2 15 9 16 15 13 8 -4z
m4457 -40 c0 -2 -10 -9 -22 -15 -22 -11 -22 -10 -4 4 21 17 26 19 26 11z m-57
-55 c4 0 5 5 2 10 -3 6 -1 10 4 10 18 0 12 -19 -9 -30 -16 -8 -20 -8 -18 2 2
7 -3 12 -10 10 -8 -1 -11 2 -7 9 5 8 10 8 18 0 6 -6 15 -11 20 -11z m-4068
-50 c-3 -5 -12 -10 -18 -10 -7 0 -6 4 3 10 19 12 23 12 15 0z m3918 -10 c4 0
6 4 3 8 -2 4 5 8 17 9 12 0 16 -1 8 -4 -11 -5 -11 -7 0 -15 11 -8 11 -9 -1 -5
-8 2 -26 -5 -39 -17 -13 -11 -21 -15 -16 -7 6 11 4 13 -9 8 -11 -4 -15 -3 -11
4 4 6 14 8 22 5 9 -4 13 -1 10 6 -2 7 -10 12 -16 10 -7 -1 -9 3 -6 9 5 8 10 8
18 0 6 -6 15 -11 20 -11z m-205 -55 c-3 -3 -9 2 -12 12 -6 14 -5 15 5 6 7 -7
10 -15 7 -18z m-3614 -3 c10 -2 23 2 28 10 6 9 8 8 6 -7 -2 -11 2 -19 7 -18 6
1 12 -7 12 -18 1 -12 -3 -18 -10 -16 -7 3 -11 10 -9 16 1 6 -4 12 -10 13 -7 0
-17 2 -23 2 -18 2 -35 17 -35 29 0 8 3 8 8 2 4 -5 16 -11 26 -13z m3496 -52
c0 -5 -5 -10 -11 -10 -5 0 -7 5 -4 10 3 6 8 10 11 10 2 0 4 -4 4 -10z m-3227
-32 c4 1 7 -2 7 -8 0 -5 -5 -10 -11 -10 -5 0 -7 -6 -3 -12 4 -8 3 -10 -2 -5
-5 5 -9 13 -9 17 0 5 -9 16 -20 25 -19 15 -19 16 5 3 14 -7 28 -11 33 -10z
m3127 -8 c0 -5 -5 -10 -11 -10 -5 0 -7 5 -4 10 3 6 8 10 11 10 2 0 4 -4 4 -10z
m-76 -18 c3 -5 -1 -9 -9 -9 -8 0 -12 4 -9 9 3 4 7 8 9 8 2 0 6 -4 9 -8z
m-2864 -33 c0 -5 5 -7 12 -3 7 4 8 3 4 -4 -4 -6 -13 -9 -21 -5 -17 6 -20 23
-5 23 6 0 10 -5 10 -11z m70 -5 c0 -8 -19 -13 -24 -6 -3 5 1 9 9 9 8 0 15 -2
15 -3z m2630 -4 c0 -5 -5 -10 -11 -10 -5 0 -7 5 -4 10 3 6 8 10 11 10 2 0 4
-4 4 -10z m40 -1 c0 -4 8 -9 18 -11 9 -2 13 -6 7 -10 -6 -4 -21 1 -34 11 -17
13 -19 18 -7 18 9 0 16 -4 16 -8z m-79 -49 c6 0 7 5 4 10 -3 6 -1 10 4 10 12
0 15 -23 4 -33 -8 -9 -33 12 -32 27 0 7 2 6 6 -1 2 -7 9 -13 14 -13z m-2361
-10 c0 -5 -2 -10 -4 -10 -3 0 -8 5 -11 10 -3 6 -1 10 4 10 6 0 11 -4 11 -10z
m2160 6 c0 -3 -4 -8 -10 -11 -5 -3 -10 -1 -10 4 0 6 5 11 10 11 6 0 10 -2 10
-4z m-2082 -31 c-3 -3 -9 2 -12 12 -6 14 -5 15 5 6 7 -7 10 -15 7 -18z m1962
5 c0 -5 -2 -10 -4 -10 -3 0 -8 5 -11 10 -3 6 -1 10 4 10 6 0 11 -4 11 -10z
m-5 -34 c9 13 11 12 11 -4 0 -13 -7 -18 -23 -17 -12 0 -26 5 -30 9 -5 5 -2 6
6 1 11 -6 13 -4 8 11 -6 17 -5 17 5 2 10 -14 13 -15 23 -2z m-1660 -14 c-3 -3
-11 0 -18 7 -9 10 -8 11 6 5 10 -3 15 -9 12 -12z m-155 4 c0 -2 -7 -7 -16 -10
-8 -3 -12 -2 -9 4 6 10 25 14 25 6z m135 -16 c7 -12 -2 -12 -30 0 -19 8 -19 9
2 9 12 1 25 -3 28 -9z m1369 -16 c5 -14 4 -15 -9 -4 -17 14 -19 20 -6 20 5 0
12 -7 15 -16z m-1024 -4 c0 -5 -5 -10 -11 -10 -5 0 -7 5 -4 10 3 6 8 10 11 10
2 0 4 -4 4 -10z m5 -29 c3 -5 2 -12 -3 -15 -5 -3 -9 1 -9 9 0 17 3 19 12 6z
m200 -21 c3 -6 -1 -7 -9 -4 -18 7 -21 14 -7 14 6 0 13 -4 16 -10z"/>
<path d="M8715 2831 c-3 -5 -2 -12 3 -15 5 -3 9 1 9 9 0 17 -3 19 -12 6z"/>
<path d="M4755 9691 c-3 -5 -2 -12 3 -15 5 -3 9 1 9 9 0 17 -3 19 -12 6z"/>
<path d="M5000 9689 c0 -5 -4 -8 -9 -4 -5 3 -12 2 -15 -3 -2 -4 6 -8 19 -8 15
0 21 5 18 13 -6 16 -13 17 -13 2z"/>
<path d="M5213 9685 c0 -8 3 -12 7 -10 3 2 12 0 20 -5 14 -9 50 8 50 24 0 5
-9 1 -20 -9 -19 -17 -20 -17 -21 1 0 11 -3 14 -6 6 -3 -9 -9 -10 -17 -3 -9 8
-13 7 -13 -4z"/>
<path d="M5373 9685 c0 -8 3 -12 7 -10 3 2 12 0 20 -5 14 -9 50 8 50 24 0 5
-9 1 -20 -9 -19 -17 -20 -17 -21 1 0 11 -3 14 -6 6 -3 -9 -9 -10 -17 -3 -9 8
-13 7 -13 -4z"/>
<path d="M4786 9678 c3 -4 9 -8 15 -8 5 0 9 4 9 8 0 5 -7 9 -15 9 -8 0 -12 -4
-9 -9z"/>
<path d="M5035 9680 c3 -5 8 -10 11 -10 2 0 4 5 4 10 0 6 -5 10 -11 10 -5 0
-7 -4 -4 -10z"/>
<path d="M5890 9681 c0 -6 4 -13 10 -16 6 -3 7 1 4 9 -7 18 -14 21 -14 7z"/>
<path d="M4386 9658 c3 -5 10 -6 15 -3 13 9 11 12 -6 12 -8 0 -12 -4 -9 -9z"/>
<path d="M4161 9613 c-1 -17 16 -25 25 -12 4 7 3 9 -4 5 -5 -3 -13 0 -15 6 -4
9 -6 10 -6 1z"/>
<path d="M6240 9600 c0 -5 5 -10 11 -10 5 0 7 5 4 10 -3 6 -8 10 -11 10 -2 0
-4 -4 -4 -10z"/>
<path d="M3959 9567 c7 -9 10 -17 5 -17 -4 0 -3 -5 4 -12 8 -8 15 -8 21 -2 6
5 -1 16 -17 29 -21 15 -24 15 -13 2z"/>
<path d="M3988 9573 c7 -3 16 -2 19 1 4 3 -2 6 -13 5 -11 0 -14 -3 -6 -6z"/>
<path d="M6355 9553 c11 -11 25 -20 30 -20 6 0 16 -2 24 -4 7 -2 15 2 17 9 1
7 0 8 -3 2 -3 -6 -21 -1 -46 11 -39 20 -41 20 -22 2z"/>
<path d="M3715 9510 c-3 -6 1 -7 9 -4 18 7 21 14 7 14 -6 0 -13 -4 -16 -10z"/>
<path d="M6610 9506 c0 -2 7 -7 16 -10 8 -3 12 -2 9 4 -6 10 -25 14 -25 6z"/>
<path d="M6982 9379 c-23 -20 -22 -39 1 -35 18 3 54 25 40 26 -6 0 -15 -5 -18
-10 -4 -6 -11 -8 -16 -4 -6 4 -3 14 7 25 23 25 13 24 -14 -2z"/>
<path d="M3250 9322 c0 -4 10 -9 22 -9 18 -2 20 0 8 7 -18 12 -30 13 -30 2z"/>
<path d="M3193 9303 c0 -7 4 -13 8 -13 4 0 9 6 12 13 3 8 0 14 -7 14 -7 0 -13
-6 -13 -14z"/>
<path d="M2947 9204 c-3 -3 -3 -13 0 -22 5 -11 3 -13 -7 -7 -9 5 -11 4 -6 -4
6 -9 11 -9 23 1 10 8 11 14 4 16 -6 2 -9 8 -5 13 6 10 1 12 -9 3z"/>
<path d="M2775 9140 c3 -5 8 -10 11 -10 2 0 4 5 4 10 0 6 -5 10 -11 10 -5 0
-7 -4 -4 -10z"/>
<path d="M2750 9116 c0 -2 8 -10 18 -17 15 -13 16 -12 3 4 -13 16 -21 21 -21
13z"/>
<path d="M2585 9020 c-2 -3 5 -6 15 -7 11 -1 22 2 24 5 3 4 -4 8 -15 8 -11 0
-22 -3 -24 -6z"/>
<path d="M7627 9024 c-15 -16 -5 -24 21 -18 15 3 32 6 39 6 7 1 10 5 7 10 -3
4 -13 4 -23 -2 -11 -6 -21 -6 -28 1 -5 5 -12 6 -16 3z"/>
<path d="M7716 8997 c3 -10 9 -15 12 -12 3 3 0 11 -7 18 -10 9 -11 8 -5 -6z"/>
<path d="M2551 8983 c-1 -17 16 -25 25 -12 4 7 3 9 -4 5 -5 -3 -13 0 -15 6 -4
9 -6 10 -6 1z"/>
<path d="M7752 8966 c7 -8 15 -12 17 -11 5 6 -10 25 -20 25 -5 0 -4 -6 3 -14z"/>
<path d="M2429 8877 c6 -8 7 -18 3 -22 -4 -5 -1 -5 6 -1 10 6 10 11 1 22 -6 8
-14 14 -16 14 -3 0 0 -6 6 -13z"/>
<path d="M7923 8842 c-9 -6 -7 -11 7 -20 12 -7 20 -8 20 -2 0 5 -5 10 -11 10
-5 0 -7 5 -4 10 7 12 4 12 -12 2z"/>
<path d="M7960 8840 c8 -5 20 -10 25 -10 6 0 3 5 -5 10 -8 5 -19 10 -25 10 -5
0 -3 -5 5 -10z"/>
<path d="M7995 8790 c-3 -6 1 -7 9 -4 18 7 21 14 7 14 -6 0 -13 -4 -16 -10z"/>
<path d="M8170 8665 c0 -7 30 -13 34 -7 3 4 -4 9 -15 9 -10 1 -19 0 -19 -2z"/>
<path d="M8341 8475 c19 -14 35 -31 35 -38 1 -7 2 -16 3 -21 0 -5 8 -3 16 4 8
6 20 8 26 4 8 -5 9 -3 5 5 -5 7 -14 10 -21 7 -8 -3 -17 4 -20 15 -4 10 -11 19
-16 19 -6 0 -17 7 -25 15 -9 8 -20 15 -27 15 -6 0 5 -11 24 -25z"/>
<path d="M1904 8457 c4 -12 -2 -20 -19 -27 -14 -5 -25 -12 -25 -14 0 -3 7 -2
17 1 11 4 14 3 9 -5 -5 -8 -2 -10 9 -6 9 4 13 9 11 12 -3 3 -2 10 4 16 5 7 5
17 -2 26 -8 12 -9 12 -4 -3z"/>
<path d="M8510 8339 c0 -5 5 -7 10 -4 6 3 10 8 10 11 0 2 -4 4 -10 4 -5 0 -10
-5 -10 -11z"/>
<path d="M1772 8321 c4 -13 18 -16 19 -4 0 4 -5 9 -11 12 -7 2 -11 -2 -8 -8z"/>
<path d="M8525 8321 c-6 -11 13 -26 22 -17 4 3 1 6 -6 6 -7 0 -9 5 -6 10 3 6
4 10 1 10 -3 0 -7 -4 -11 -9z"/>
<path d="M1716 8273 c-6 -14 -5 -15 5 -6 7 7 10 15 7 18 -3 3 -9 -2 -12 -12z"/>
<path d="M1606 8108 c3 -5 10 -6 15 -3 13 9 11 12 -6 12 -8 0 -12 -4 -9 -9z"/>
<path d="M8738 8050 c2 -8 5 -21 6 -28 1 -7 8 -18 16 -25 10 -9 11 -9 6 1 -4
6 -2 12 3 12 6 0 11 5 11 10 0 6 -5 9 -11 8 -6 -2 -14 3 -17 11 -3 8 0 11 7 7
7 -5 9 -1 4 9 -4 12 -8 13 -13 5 -4 -7 -10 -8 -12 -4 -3 5 -3 2 0 -6z"/>
<path d="M8792 7977 c-8 -9 -2 -20 19 -41 31 -32 40 -26 12 7 -17 19 -17 20 0
14 11 -4 16 -3 12 4 -4 5 -16 7 -28 3 -19 -6 -20 -5 -8 10 7 9 11 16 8 16 -2
0 -9 -6 -15 -13z"/>
<path d="M1490 7969 c0 -5 -4 -8 -8 -5 -4 2 -14 1 -21 -4 -9 -5 -3 -7 16 -7
17 1 30 7 30 14 0 7 -4 13 -9 13 -4 0 -8 -5 -8 -11z"/>
<path d="M8854 7939 c-7 -12 15 -59 28 -59 4 0 8 7 8 16 0 13 3 14 13 5 8 -6
17 -8 20 -4 10 10 8 33 -3 33 -5 0 -6 -8 -3 -17 5 -15 4 -16 -8 -7 -8 6 -22
10 -31 9 -10 -2 -18 3 -18 11 0 8 6 11 15 8 8 -4 15 -4 15 -1 0 11 -30 15 -36
6z"/>
<path d="M8947 7939 c7 -7 15 -10 18 -7 3 3 -2 9 -12 12 -14 6 -15 5 -6 -5z"/>
<path d="M1365 7920 c-3 -5 -1 -10 4 -10 6 0 11 5 11 10 0 6 -2 10 -4 10 -3 0
-8 -4 -11 -10z"/>
<path d="M1057 7863 c-4 -3 -7 -13 -7 -22 1 -13 3 -13 11 2 11 19 8 33 -4 20z"/>
<path d="M1083 7856 c-3 -5 -1 -6 5 -2 6 3 13 2 17 -4 7 -11 25 -4 25 10 0 11
-40 8 -47 -4z"/>
<path d="M9366 7858 c3 -5 10 -6 15 -3 13 9 11 12 -6 12 -8 0 -12 -4 -9 -9z"/>
<path d="M825 7840 c-3 -6 1 -7 9 -4 18 7 21 14 7 14 -6 0 -13 -4 -16 -10z"/>
<path d="M870 7836 c7 -7 13 -7 20 0 6 6 3 10 -10 10 -13 0 -16 -4 -10 -10z"/>
<path d="M910 7840 c0 -5 5 -10 10 -10 6 0 10 5 10 10 0 6 -4 10 -10 10 -5 0
-10 -4 -10 -10z"/>
<path d="M9475 7820 c-3 -6 1 -7 9 -4 18 7 21 14 7 14 -6 0 -13 -4 -16 -10z"/>
<path d="M792 7788 c2 -6 10 -14 16 -16 7 -2 10 2 6 12 -7 18 -28 22 -22 4z"/>
<path d="M9726 7778 c3 -5 10 -6 15 -3 13 9 11 12 -6 12 -8 0 -12 -4 -9 -9z"/>
<path d="M593 7761 c-1 -9 7 -22 17 -29 16 -10 21 -8 31 9 7 13 7 19 1 15 -6
-3 -12 -1 -15 6 -2 7 -3 5 -1 -5 1 -10 -3 -16 -9 -14 -7 2 -12 9 -12 15 0 18
-11 22 -12 3z"/>
<path d="M9776 7767 c3 -10 9 -15 12 -12 3 3 0 11 -7 18 -10 9 -11 8 -5 -6z"/>
<path d="M9885 7620 c-3 -5 -1 -10 4 -10 6 0 11 5 11 10 0 6 -2 10 -4 10 -3 0
-8 -4 -11 -10z"/>
<path d="M9884 7341 c1 -16 5 -33 10 -38 5 -5 6 -2 1 6 -4 7 -3 16 3 20 7 4 6
12 -3 24 -11 16 -13 15 -11 -12z"/>
<path d="M475 7309 c-4 -6 -5 -12 -2 -15 2 -3 7 2 10 11 7 17 1 20 -8 4z"/>
<path d="M9875 7242 c-2 -3 -2 -8 1 -13 5 -9 34 -1 34 10 0 8 -27 10 -35 3z"/>
<path d="M585 7075 c0 -12 5 -22 10 -22 6 0 11 8 11 18 0 10 -5 20 -11 22 -5
3 -10 -5 -10 -18z"/>
<path d="M9805 7092 c-10 -7 -18 -32 -10 -32 2 0 9 9 15 20 12 22 11 24 -5 12z"/>
<path d="M9750 7040 c0 -5 5 -10 11 -10 5 0 7 5 4 10 -3 6 -8 10 -11 10 -2 0
-4 -4 -4 -10z"/>
<path d="M693 6998 c-3 -7 -1 -8 5 -4 7 4 12 2 12 -4 0 -13 21 -9 23 4 3 13
-32 16 -40 4z"/>
<path d="M9695 7000 c3 -5 8 -10 11 -10 2 0 4 5 4 10 0 6 -5 10 -11 10 -5 0
-7 -4 -4 -10z"/>
<path d="M9635 6990 c-3 -5 -1 -10 4 -10 6 0 11 5 11 10 0 6 -2 10 -4 10 -3 0
-8 -4 -11 -10z"/>
<path d="M748 6954 c-6 -23 18 -30 26 -7 3 8 2 12 -3 8 -5 -3 -11 0 -13 7 -3
7 -7 3 -10 -8z"/>
<path d="M827 6868 c-3 -10 0 -15 11 -14 12 1 16 -6 15 -21 -2 -13 2 -23 7
-23 6 0 10 -5 10 -11 0 -5 -6 -7 -12 -3 -7 4 -5 -1 4 -12 14 -14 21 -15 30 -6
9 9 9 12 -1 12 -7 0 -9 5 -6 10 3 6 1 10 -5 10 -6 0 -9 4 -5 9 3 5 -5 22 -18
37 -19 22 -25 24 -30 12z"/>
<path d="M9510 6809 c0 -5 5 -7 10 -4 6 3 10 8 10 11 0 2 -4 4 -10 4 -5 0 -10
-5 -10 -11z"/>
<path d="M870 6753 c1 -13 30 -48 30 -36 0 7 -5 15 -10 18 -6 4 -8 11 -5 16 4
5 1 9 -4 9 -6 0 -11 -3 -11 -7z"/>
<path d="M850 6726 c0 -2 7 -7 16 -10 8 -3 12 -2 9 4 -6 10 -25 14 -25 6z"/>
<path d="M9487 6459 c7 -7 15 -10 18 -7 3 3 -2 9 -12 12 -14 6 -15 5 -6 -5z"/>
<path d="M800 6440 c-9 -6 -10 -10 -3 -10 6 0 15 5 18 10 8 12 4 12 -15 0z"/>
<path d="M789 6403 c-8 -9 -9 -14 -2 -10 6 4 13 1 16 -5 3 -7 4 -3 4 10 -1 26
-1 26 -18 5z"/>
<path d="M9500 6406 c0 -2 8 -10 18 -17 15 -13 16 -12 3 4 -13 16 -21 21 -21
13z"/>
<path d="M779 6237 c11 -14 11 -17 0 -17 -11 0 -11 -2 1 -10 21 -14 40 -12 34
3 -2 7 -14 19 -27 26 -20 13 -21 13 -8 -2z"/>
<path d="M9509 6198 c-1 -2 -2 -15 -3 -30 -2 -19 1 -25 11 -21 12 5 12 7 1 14
-10 7 -10 9 2 9 12 0 13 2 1 9 -11 7 -11 9 0 14 10 4 10 6 2 6 -7 1 -13 0 -14
-1z"/>
<path d="M9502 6118 c2 -6 11 -13 19 -16 12 -3 12 -2 0 6 -11 8 -11 10 0 15
10 4 8 6 -4 6 -10 1 -17 -4 -15 -11z"/>
<path d="M9513 6083 c4 -3 2 -12 -4 -19 -14 -17 17 -32 33 -16 8 8 4 9 -13 6
-22 -5 -23 -4 -7 9 17 14 15 27 -5 27 -6 0 -7 -3 -4 -7z"/>
<path d="M9510 5981 c0 -6 5 -13 10 -16 6 -4 8 -10 5 -15 -3 -5 0 -12 6 -15 5
-4 8 -14 5 -22 -3 -8 -1 -11 4 -8 13 8 13 -1 -1 -27 -8 -15 -8 -19 0 -14 14 9
14 -6 1 -22 -6 -6 -7 -10 -4 -7 4 3 13 0 20 -6 9 -7 12 -6 10 8 -2 10 2 21 8
25 7 5 4 8 -6 8 -10 0 -18 5 -18 10 0 6 5 10 11 10 8 0 8 4 0 14 -6 7 -9 22
-5 32 4 14 3 15 -4 5 -6 -8 -12 -9 -16 -3 -3 6 -2 13 3 17 14 8 2 35 -15 35
-8 0 -14 -4 -14 -9z"/>
<path d="M733 5965 c0 -8 4 -12 9 -9 5 3 6 10 3 15 -9 13 -12 11 -12 -6z"/>
<path d="M736 5923 c-6 -14 -5 -15 5 -6 7 7 10 15 7 18 -3 3 -9 -2 -12 -12z"/>
<path d="M750 5805 c0 -8 4 -15 8 -15 5 0 9 7 9 15 0 8 -4 15 -9 15 -4 0 -8
-7 -8 -15z"/>
<path d="M9545 5810 c3 -5 1 -19 -5 -31 -10 -19 -10 -20 6 -11 22 12 27 39 7
46 -7 3 -11 1 -8 -4z"/>
<path d="M706 5722 c-3 -5 1 -9 9 -9 8 0 15 4 15 9 0 4 -4 8 -9 8 -6 0 -12 -4
-15 -8z"/>
<path d="M707 5383 c-3 -5 6 -9 19 -9 13 -1 21 2 18 7 -6 11 -31 12 -37 2z"/>
<path d="M9559 5207 c0 -1 -2 -10 -4 -20 -3 -15 -1 -16 13 -5 9 7 18 13 20 14
2 1 -4 4 -13 7 -8 4 -15 5 -16 4z"/>
<path d="M9570 5159 c0 -5 -5 -7 -12 -3 -7 4 -8 3 -4 -4 4 -6 13 -9 21 -5 17
6 20 23 5 23 -5 0 -10 -5 -10 -11z"/>
<path d="M9525 5081 c-3 -5 -1 -12 5 -16 5 -3 10 1 10 9 0 18 -6 21 -15 7z"/>
<path d="M9553 5075 c0 -8 4 -12 9 -9 4 3 8 9 8 15 0 5 -4 9 -8 9 -5 0 -9 -7
-9 -15z"/>
<path d="M706 5058 c3 -5 10 -6 15 -3 13 9 11 12 -6 12 -8 0 -12 -4 -9 -9z"/>
<path d="M9570 5035 c0 -8 2 -15 4 -15 2 0 6 7 10 15 3 8 1 15 -4 15 -6 0 -10
-7 -10 -15z"/>
<path d="M752 4966 c4 -5 3 -15 -3 -22 -7 -9 -6 -12 5 -10 25 3 28 12 9 27
-10 7 -15 9 -11 5z"/>
<path d="M736 4893 c-6 -14 -5 -15 5 -6 7 7 10 15 7 18 -3 3 -9 -2 -12 -12z"/>
<path d="M777 4773 c-10 -9 -9 -23 1 -23 5 0 9 7 9 15 0 17 -1 18 -10 8z"/>
<path d="M775 4620 c-8 -13 5 -13 25 0 13 8 13 10 -2 10 -9 0 -20 -4 -23 -10z"/>
<path d="M9510 4621 c0 -6 4 -13 10 -16 6 -3 7 1 4 9 -7 18 -14 21 -14 7z"/>
<path d="M816 4438 c3 -4 11 -5 19 -1 21 7 19 12 -4 10 -11 0 -18 -5 -15 -9z"/>
<path d="M9482 4438 c-15 -15 -15 -28 -1 -28 5 0 8 4 4 9 -3 6 3 14 12 20 10
6 13 11 8 11 -6 0 -16 -5 -23 -12z"/>
<path d="M9433 4355 c0 -8 4 -12 9 -9 4 3 8 9 8 15 0 5 -4 9 -8 9 -5 0 -9 -7
-9 -15z"/>
<path d="M830 4246 c0 -2 7 -7 16 -10 8 -3 12 -2 9 4 -6 10 -25 14 -25 6z"/>
<path d="M892 4160 c0 -14 2 -19 5 -12 2 6 2 18 0 25 -3 6 -5 1 -5 -13z"/>
<path d="M9395 4131 c-3 -5 -2 -12 3 -15 5 -3 9 1 9 9 0 17 -3 19 -12 6z"/>
<path d="M908 4123 c10 -4 10 -8 1 -20 -10 -11 -10 -14 1 -11 8 2 14 -2 15 -9
0 -6 3 -14 6 -17 5 -5 5 19 0 57 -1 4 -9 7 -18 6 -12 0 -13 -2 -5 -6z"/>
<path d="M9390 4081 c0 -6 4 -12 8 -15 5 -3 9 1 9 9 0 8 -4 15 -9 15 -4 0 -8
-4 -8 -9z"/>
<path d="M913 4045 c0 -8 4 -12 9 -9 5 3 6 10 3 15 -9 13 -12 11 -12 -6z"/>
<path d="M9333 3984 c3 -4 2 -15 -4 -25 -6 -13 -6 -19 1 -19 5 0 10 7 10 15 0
8 8 15 18 15 14 0 15 2 2 10 -17 11 -37 14 -27 4z"/>
<path d="M950 3936 c0 -2 11 -6 25 -8 13 -3 22 -1 19 3 -5 9 -44 13 -44 5z"/>
<path d="M9330 3920 c0 -5 5 -10 10 -10 6 0 10 5 10 10 0 6 -4 10 -10 10 -5 0
-10 -4 -10 -10z"/>
<path d="M1028 3727 c-10 -7 -9 -8 2 -4 19 6 38 -13 34 -36 -1 -9 1 -15 6 -12
7 4 7 27 0 45 -1 3 -2 8 -2 11 1 9 -26 7 -40 -4z"/>
<path d="M9227 3717 c-14 -21 -13 -25 4 -48 15 -18 18 -19 12 -5 -5 16 -3 18
13 13 14 -6 13 -2 -6 14 -24 20 -24 21 -3 16 20 -4 21 -2 12 14 -12 24 -14 24
-32 -4z"/>
<path d="M9194 3605 c3 -23 12 -26 13 -5 1 11 -2 20 -7 20 -4 0 -7 -7 -6 -15z"/>
<path d="M9104 3422 c2 -9 8 -17 15 -18 8 -2 8 -1 0 3 -8 4 -8 7 1 13 9 5 8 9
-3 13 -10 4 -14 0 -13 -11z"/>
<path d="M9053 3338 c-15 -19 -27 -44 -18 -36 4 4 14 3 21 -3 10 -8 12 -5 8
16 -3 19 -1 24 7 19 8 -4 9 -3 5 4 -9 15 -11 15 -23 0z"/>
<path d="M1233 3303 c15 -4 16 -7 5 -21 -12 -15 -11 -16 4 -3 20 15 15 32 -10
30 -15 -1 -15 -2 1 -6z"/>
<path d="M8990 3241 c-13 -25 -13 -31 0 -31 6 0 9 6 8 13 -2 6 2 11 9 10 7 -2
10 4 7 12 -8 20 -11 19 -24 -4z"/>
<path d="M8661 2746 c-15 -17 -1 -28 19 -15 13 7 13 9 0 9 -13 0 -13 1 0 10 8
5 10 10 4 10 -6 0 -17 -6 -23 -14z"/>
<path d="M8596 2681 c-3 -5 1 -11 9 -14 9 -4 12 -1 8 9 -6 16 -10 17 -17 5z"/>
<path d="M1684 2664 c9 -8 14 -20 11 -25 -4 -5 -1 -9 4 -9 10 0 13 5 15 32 1
6 -9 13 -22 15 -22 3 -22 2 -8 -13z"/>
<path d="M8582 2645 c-5 -9 -21 -24 -36 -34 -23 -15 -25 -19 -11 -25 9 -3 13
-2 10 4 -6 10 28 32 39 25 3 -3 4 -2 1 2 -3 3 3 11 12 18 11 8 12 14 5 19 -6
3 -15 -1 -20 -9z"/>
<path d="M1783 2553 c-20 -7 -15 -19 7 -20 11 -1 20 2 20 7 0 12 -13 18 -27
13z"/>
<path d="M1826 2458 c3 -4 9 -8 15 -8 5 0 9 4 9 8 0 5 -7 9 -15 9 -8 0 -12 -4
-9 -9z"/>
<path d="M1874 2458 c-4 -7 -3 -8 4 -4 7 4 12 1 12 -8 0 -9 5 -16 10 -16 7 0
7 6 0 20 -12 23 -16 24 -26 8z"/>
<path d="M1986 2298 c3 -5 10 -6 15 -3 13 9 11 12 -6 12 -8 0 -12 -4 -9 -9z"/>
<path d="M8134 2178 c-4 -7 -4 -10 1 -6 4 4 15 2 24 -5 14 -11 14 -10 2 6 -16
20 -18 21 -27 5z"/>
<path d="M8060 2160 c0 -5 5 -10 11 -10 5 0 7 5 4 10 -3 6 -8 10 -11 10 -2 0
-4 -4 -4 -10z"/>
<path d="M7936 2084 c-3 -8 0 -11 10 -7 10 4 12 0 8 -11 -4 -10 -1 -16 7 -16
7 0 9 3 6 7 -4 3 -2 12 4 20 9 10 15 11 28 1 13 -10 14 -10 3 2 -16 18 -60 21
-66 4z"/>
<path d="M7705 1910 c-3 -5 -1 -10 4 -10 6 0 11 5 11 10 0 6 -2 10 -4 10 -3 0
-8 -4 -11 -10z"/>
<path d="M2586 1862 c-3 -5 1 -9 9 -9 8 0 12 4 9 9 -3 4 -7 8 -9 8 -2 0 -6 -4
-9 -8z"/>
<path d="M2820 1740 c0 -5 7 -7 15 -4 8 4 15 8 15 10 0 2 -7 4 -15 4 -8 0 -15
-4 -15 -10z"/>
<path d="M2853 1716 c0 -8 6 -12 14 -9 7 3 10 9 7 14 -8 14 -21 11 -21 -5z"/>
<path d="M7390 1721 c0 -7 -4 -10 -8 -7 -9 6 -22 -2 -40 -26 -10 -12 -10 -18
-1 -24 7 -4 9 -3 6 3 -4 6 2 18 13 28 15 14 20 15 20 4 1 -10 4 -8 11 4 6 10
8 21 5 24 -3 4 -6 1 -6 -6z"/>
<path d="M2930 1704 c0 -10 3 -14 6 -11 13 12 43 -13 38 -31 -5 -14 -4 -15 5
-2 9 12 11 13 11 1 0 -8 3 -11 6 -8 4 4 2 13 -4 20 -7 8 -10 17 -7 20 3 4 2 5
-2 2 -3 -3 -17 2 -30 10 -21 14 -23 14 -23 -1z"/>
<path d="M3115 1620 c-19 -8 -19 -9 3 -9 12 -1 22 4 22 9 0 6 -1 10 -2 9 -2 0
-12 -4 -23 -9z"/>
<path d="M6954 1529 c-3 -6 -12 -8 -18 -6 -16 6 -40 -30 -26 -38 6 -4 9 -1 8
6 -2 7 6 14 17 16 16 3 17 2 5 -6 -8 -6 -10 -11 -4 -11 6 0 21 8 33 19 17 15
19 20 7 24 -9 4 -18 2 -22 -4z"/>
<path d="M7000 1519 c0 -5 5 -7 10 -4 6 3 10 8 10 11 0 2 -4 4 -10 4 -5 0 -10
-5 -10 -11z"/>
<path d="M6662 1421 c-11 -6 -11 -10 0 -19 9 -7 18 -7 31 3 16 11 16 13 1 19
-19 7 -16 7 -32 -3z m28 -5 c0 -3 -4 -8 -10 -11 -5 -3 -10 -1 -10 4 0 6 5 11
10 11 6 0 10 -2 10 -4z"/>
<path d="M3556 1398 c3 -4 11 -5 19 -1 21 7 19 12 -4 10 -11 0 -18 -5 -15 -9z"/>
<path d="M6633 1395 c0 -8 4 -12 9 -9 5 3 6 10 3 15 -9 13 -12 11 -12 -6z"/>
<path d="M6590 1390 c8 -5 20 -10 25 -10 6 0 3 5 -5 10 -8 5 -19 10 -25 10 -5
0 -3 -5 5 -10z"/>
<path d="M3802 1356 c7 -15 14 -23 16 -17 2 6 8 11 13 11 6 0 8 -4 5 -9 -4 -5
2 -8 11 -6 10 1 23 -2 30 -7 7 -5 14 -5 17 1 4 5 2 12 -4 16 -5 3 -10 3 -10
-1 0 -3 -7 -1 -15 6 -8 7 -15 9 -15 5 0 -4 -7 -2 -15 5 -12 10 -15 10 -15 -1
0 -8 -6 -5 -15 7 -14 17 -14 17 -3 -10z"/>
<path d="M3755 1360 c-3 -5 -2 -10 4 -10 5 0 13 5 16 10 3 6 2 10 -4 10 -5 0
-13 -4 -16 -10z"/>
<path d="M6516 1342 c-3 -5 1 -9 9 -9 8 0 12 4 9 9 -3 4 -7 8 -9 8 -2 0 -6 -4
-9 -8z"/>
<path d="M6224 1309 c-2 -4 0 -10 6 -14 5 -3 10 -3 10 2 0 4 5 1 10 -7 7 -12
9 -11 8 6 -2 20 -24 29 -34 13z"/>
<path d="M4153 1278 c2 -7 12 -12 22 -10 11 2 14 -1 9 -9 -5 -8 -3 -10 6 -4
10 6 9 11 -5 22 -23 16 -38 17 -32 1z"/>
<path d="M6175 1280 c3 -5 11 -10 16 -10 6 0 7 5 4 10 -3 6 -11 10 -16 10 -6
0 -7 -4 -4 -10z"/>
<path d="M4446 1237 c3 -10 9 -15 12 -12 3 3 0 11 -7 18 -10 9 -11 8 -5 -6z"/>
<path d="M6035 1240 c3 -5 8 -10 11 -10 2 0 4 5 4 10 0 6 -5 10 -11 10 -5 0
-7 -4 -4 -10z"/>
<path d="M5695 1231 c-3 -6 -14 -8 -25 -6 -11 2 -22 0 -25 -6 -4 -5 1 -9 10
-9 9 0 13 -4 10 -10 -3 -5 -1 -10 4 -10 6 0 11 4 11 10 0 5 12 16 28 24 18 10
22 15 10 16 -9 0 -19 -4 -23 -9z"/>
<path d="M4907 1195 c-4 -8 -3 -16 1 -19 4 -3 9 4 9 15 2 23 -3 25 -10 4z"/>
<path d="M5906 1198 c3 -5 10 -6 15 -3 13 9 11 12 -6 12 -8 0 -12 -4 -9 -9z"/>
<path d="M5070 1180 c0 -5 5 -10 11 -10 5 0 7 5 4 10 -3 6 -8 10 -11 10 -2 0
-4 -4 -4 -10z"/>
</g>
</svg>
